<?xml version="1.0" encoding="utf-8" standalone="no"?>
<!DOCTYPE svg PUBLIC "-//W3C//DTD SVG 1.1//EN"
  "http://www.w3.org/Graphics/SVG/1.1/DTD/svg11.dtd">
<svg xmlns:xlink="http://www.w3.org/1999/xlink" width="472.033261pt" height="397.305169pt" viewBox="0 0 472.033261 397.305169" xmlns="http://www.w3.org/2000/svg" version="1.1">
 <metadata>
  <rdf:RDF xmlns:dc="http://purl.org/dc/elements/1.1/" xmlns:cc="http://creativecommons.org/ns#" xmlns:rdf="http://www.w3.org/1999/02/22-rdf-syntax-ns#">
   <cc:Work>
    <dc:type rdf:resource="http://purl.org/dc/dcmitype/StillImage"/>
    <dc:date>2026-06-20T15:50:12.319433</dc:date>
    <dc:format>image/svg+xml</dc:format>
    <dc:creator>
     <cc:Agent>
      <dc:title>Matplotlib v3.10.9, https://matplotlib.org/</dc:title>
     </cc:Agent>
    </dc:creator>
   </cc:Work>
  </rdf:RDF>
 </metadata>
 <defs>
  <style type="text/css">*{stroke-linejoin: round; stroke-linecap: butt}</style>
 </defs>
 <g id="figure_1">
  <g id="patch_1">
   <path d="M 0 397.305169 
L 472.033261 397.305169 
L 472.033261 0 
L 0 0 
z
" style="fill: #ffffff"/>
  </g>
  <g id="axes_1">
   <g id="patch_2">
    <path d="M 34.92 177.99836 
L 222.941739 177.99836 
L 222.941739 26.925419 
L 34.92 26.925419 
z
" style="fill: #ffffff"/>
   </g>
   <g id="line2d_1">
    <path d="M 59.821652 177.99836 
L 59.821652 26.925419 
" clip-path="url(#pd82a498367)" style="fill: none; stroke: #bfbfbf; stroke-width: 0.65; stroke-linecap: square"/>
   </g>
   <g id="line2d_2">
    <path d="M 86.460584 177.99836 
L 86.460584 26.925419 
" clip-path="url(#pd82a498367)" style="fill: none; stroke: #bfbfbf; stroke-width: 0.65; stroke-linecap: square"/>
   </g>
   <g id="line2d_3">
    <path d="M 133.947372 177.99836 
L 133.947372 26.925419 
" clip-path="url(#pd82a498367)" style="fill: none; stroke: #bfbfbf; stroke-width: 0.65; stroke-linecap: square"/>
   </g>
   <g id="line2d_4">
    <path d="M 175.643156 177.99836 
L 175.643156 26.925419 
" clip-path="url(#pd82a498367)" style="fill: none; stroke: #bfbfbf; stroke-width: 0.65; stroke-linecap: square"/>
   </g>
   <g id="line2d_5">
    <path d="M 206.914906 177.99836 
L 206.914906 26.925419 
" clip-path="url(#pd82a498367)" style="fill: none; stroke: #bfbfbf; stroke-width: 0.65; stroke-linecap: square"/>
   </g>
   <g id="patch_3">
    <path d="M 80.675299 177.99836 
L 92.245868 177.99836 
L 92.245868 26.925419 
L 80.675299 26.925419 
z
" clip-path="url(#pd82a498367)" style="fill: #f3e8d2; opacity: 0.22"/>
   </g>
   <g id="matplotlib.axis_1">
    <g id="xtick_1">
     <g id="line2d_6">
      <path d="M 34.92 177.99836 
L 34.92 26.925419 
" clip-path="url(#pd82a498367)" style="fill: none; stroke: #e7e7e7; stroke-width: 0.7; stroke-linecap: square"/>
     </g>
     <g id="line2d_7">
      <defs>
       <path id="m09db8213d4" d="M 0 0 
L 0 3.5 
" style="stroke: #000000; stroke-width: 0.8"/>
      </defs>
      <g>
       <use xlink:href="#m09db8213d4" x="34.92" y="177.99836" style="stroke: #000000; stroke-width: 0.8"/>
      </g>
     </g>
     <g id="text_1">
      <text style="font-size: 8px; font-family: 'Arial', 'DejaVu Sans', 'Liberation Sans', sans-serif; text-anchor: middle" x="34.92" y="190.72461" transform="rotate(-0 34.92 190.72461)">3000</text>
     </g>
    </g>
    <g id="xtick_2">
     <g id="line2d_8">
      <path d="M 63.846421 177.99836 
L 63.846421 26.925419 
" clip-path="url(#pd82a498367)" style="fill: none; stroke: #e7e7e7; stroke-width: 0.7; stroke-linecap: square"/>
     </g>
     <g id="line2d_9">
      <g>
       <use xlink:href="#m09db8213d4" x="63.846421" y="177.99836" style="stroke: #000000; stroke-width: 0.8"/>
      </g>
     </g>
     <g id="text_2">
      <text style="font-size: 8px; font-family: 'Arial', 'DejaVu Sans', 'Liberation Sans', sans-serif; text-anchor: middle" x="63.846421" y="190.72461" transform="rotate(-0 63.846421 190.72461)">3100</text>
     </g>
    </g>
    <g id="xtick_3">
     <g id="line2d_10">
      <path d="M 92.772843 177.99836 
L 92.772843 26.925419 
" clip-path="url(#pd82a498367)" style="fill: none; stroke: #e7e7e7; stroke-width: 0.7; stroke-linecap: square"/>
     </g>
     <g id="line2d_11">
      <g>
       <use xlink:href="#m09db8213d4" x="92.772843" y="177.99836" style="stroke: #000000; stroke-width: 0.8"/>
      </g>
     </g>
     <g id="text_3">
      <text style="font-size: 8px; font-family: 'Arial', 'DejaVu Sans', 'Liberation Sans', sans-serif; text-anchor: middle" x="92.772843" y="190.72461" transform="rotate(-0 92.772843 190.72461)">3200</text>
     </g>
    </g>
    <g id="xtick_4">
     <g id="line2d_12">
      <path d="M 121.699264 177.99836 
L 121.699264 26.925419 
" clip-path="url(#pd82a498367)" style="fill: none; stroke: #e7e7e7; stroke-width: 0.7; stroke-linecap: square"/>
     </g>
     <g id="line2d_13">
      <g>
       <use xlink:href="#m09db8213d4" x="121.699264" y="177.99836" style="stroke: #000000; stroke-width: 0.8"/>
      </g>
     </g>
     <g id="text_4">
      <text style="font-size: 8px; font-family: 'Arial', 'DejaVu Sans', 'Liberation Sans', sans-serif; text-anchor: middle" x="121.699264" y="190.72461" transform="rotate(-0 121.699264 190.72461)">3300</text>
     </g>
    </g>
    <g id="xtick_5">
     <g id="line2d_14">
      <path d="M 150.625686 177.99836 
L 150.625686 26.925419 
" clip-path="url(#pd82a498367)" style="fill: none; stroke: #e7e7e7; stroke-width: 0.7; stroke-linecap: square"/>
     </g>
     <g id="line2d_15">
      <g>
       <use xlink:href="#m09db8213d4" x="150.625686" y="177.99836" style="stroke: #000000; stroke-width: 0.8"/>
      </g>
     </g>
     <g id="text_5">
      <text style="font-size: 8px; font-family: 'Arial', 'DejaVu Sans', 'Liberation Sans', sans-serif; text-anchor: middle" x="150.625686" y="190.72461" transform="rotate(-0 150.625686 190.72461)">3400</text>
     </g>
    </g>
    <g id="xtick_6">
     <g id="line2d_16">
      <path d="M 179.552107 177.99836 
L 179.552107 26.925419 
" clip-path="url(#pd82a498367)" style="fill: none; stroke: #e7e7e7; stroke-width: 0.7; stroke-linecap: square"/>
     </g>
     <g id="line2d_17">
      <g>
       <use xlink:href="#m09db8213d4" x="179.552107" y="177.99836" style="stroke: #000000; stroke-width: 0.8"/>
      </g>
     </g>
     <g id="text_6">
      <text style="font-size: 8px; font-family: 'Arial', 'DejaVu Sans', 'Liberation Sans', sans-serif; text-anchor: middle" x="179.552107" y="190.72461" transform="rotate(-0 179.552107 190.72461)">3500</text>
     </g>
    </g>
    <g id="xtick_7">
     <g id="line2d_18">
      <path d="M 208.478528 177.99836 
L 208.478528 26.925419 
" clip-path="url(#pd82a498367)" style="fill: none; stroke: #e7e7e7; stroke-width: 0.7; stroke-linecap: square"/>
     </g>
     <g id="line2d_19">
      <g>
       <use xlink:href="#m09db8213d4" x="208.478528" y="177.99836" style="stroke: #000000; stroke-width: 0.8"/>
      </g>
     </g>
     <g id="text_7">
      <text style="font-size: 8px; font-family: 'Arial', 'DejaVu Sans', 'Liberation Sans', sans-serif; text-anchor: middle" x="208.478528" y="190.72461" transform="rotate(-0 208.478528 190.72461)">3600</text>
     </g>
    </g>
    <g id="text_8">
     <text style="font-size: 8px; font-family: 'Arial', 'DejaVu Sans', 'Liberation Sans', sans-serif; text-anchor: middle" x="128.93087" y="202.13836" transform="rotate(-0 128.93087 202.13836)">Wavelength (nm)</text>
    </g>
   </g>
   <g id="matplotlib.axis_2">
    <g id="ytick_1">
     <g id="line2d_20">
      <path d="M 34.92 171.429972 
L 222.941739 171.429972 
" clip-path="url(#pd82a498367)" style="fill: none; stroke: #e7e7e7; stroke-width: 0.7; stroke-linecap: square"/>
     </g>
     <g id="line2d_21">
      <defs>
       <path id="m48c30b2fb4" d="M 0 0 
L -3.5 0 
" style="stroke: #000000; stroke-width: 0.8"/>
      </defs>
      <g>
       <use xlink:href="#m48c30b2fb4" x="34.92" y="171.429972" style="stroke: #000000; stroke-width: 0.8"/>
      </g>
     </g>
     <g id="text_9">
      <text style="font-size: 8px; font-family: 'Arial', 'DejaVu Sans', 'Liberation Sans', sans-serif; text-anchor: end" x="27.92" y="174.293097" transform="rotate(-0 27.92 174.293097)">0.0</text>
     </g>
    </g>
    <g id="ytick_2">
     <g id="line2d_22">
      <path d="M 34.92 138.588028 
L 222.941739 138.588028 
" clip-path="url(#pd82a498367)" style="fill: none; stroke: #e7e7e7; stroke-width: 0.7; stroke-linecap: square"/>
     </g>
     <g id="line2d_23">
      <g>
       <use xlink:href="#m48c30b2fb4" x="34.92" y="138.588028" style="stroke: #000000; stroke-width: 0.8"/>
      </g>
     </g>
     <g id="text_10">
      <text style="font-size: 8px; font-family: 'Arial', 'DejaVu Sans', 'Liberation Sans', sans-serif; text-anchor: end" x="27.92" y="141.451153" transform="rotate(-0 27.92 141.451153)">0.1</text>
     </g>
    </g>
    <g id="ytick_3">
     <g id="line2d_24">
      <path d="M 34.92 105.746084 
L 222.941739 105.746084 
" clip-path="url(#pd82a498367)" style="fill: none; stroke: #e7e7e7; stroke-width: 0.7; stroke-linecap: square"/>
     </g>
     <g id="line2d_25">
      <g>
       <use xlink:href="#m48c30b2fb4" x="34.92" y="105.746084" style="stroke: #000000; stroke-width: 0.8"/>
      </g>
     </g>
     <g id="text_11">
      <text style="font-size: 8px; font-family: 'Arial', 'DejaVu Sans', 'Liberation Sans', sans-serif; text-anchor: end" x="27.92" y="108.609209" transform="rotate(-0 27.92 108.609209)">0.2</text>
     </g>
    </g>
    <g id="ytick_4">
     <g id="line2d_26">
      <path d="M 34.92 72.90414 
L 222.941739 72.90414 
" clip-path="url(#pd82a498367)" style="fill: none; stroke: #e7e7e7; stroke-width: 0.7; stroke-linecap: square"/>
     </g>
     <g id="line2d_27">
      <g>
       <use xlink:href="#m48c30b2fb4" x="34.92" y="72.90414" style="stroke: #000000; stroke-width: 0.8"/>
      </g>
     </g>
     <g id="text_12">
      <text style="font-size: 8px; font-family: 'Arial', 'DejaVu Sans', 'Liberation Sans', sans-serif; text-anchor: end" x="27.92" y="75.767265" transform="rotate(-0 27.92 75.767265)">0.3</text>
     </g>
    </g>
    <g id="ytick_5">
     <g id="line2d_28">
      <path d="M 34.92 40.062197 
L 222.941739 40.062197 
" clip-path="url(#pd82a498367)" style="fill: none; stroke: #e7e7e7; stroke-width: 0.7; stroke-linecap: square"/>
     </g>
     <g id="line2d_29">
      <g>
       <use xlink:href="#m48c30b2fb4" x="34.92" y="40.062197" style="stroke: #000000; stroke-width: 0.8"/>
      </g>
     </g>
     <g id="text_13">
      <text style="font-size: 8px; font-family: 'Arial', 'DejaVu Sans', 'Liberation Sans', sans-serif; text-anchor: end" x="27.92" y="42.925322" transform="rotate(-0 27.92 42.925322)">0.4</text>
     </g>
    </g>
    <g id="text_14">
     <text style="font-size: 8px; font-family: 'Arial', 'DejaVu Sans', 'Liberation Sans', sans-serif; text-anchor: middle" x="11.21" y="102.46189" transform="rotate(-90 11.21 102.46189)">Transmission</text>
    </g>
   </g>
   <g id="line2d_30">
    <path d="M 34.92 74.975989 
L 35.499093 74.702707 
L 36.078187 74.622214 
L 36.657351 74.751802 
L 37.236444 75.09994 
L 37.815538 75.665569 
L 38.394631 76.43804 
L 39.552888 78.41873 
L 40.711075 80.764735 
L 43.606613 87.032186 
L 44.7648 88.966414 
L 45.923057 90.346381 
L 46.50215 90.792151 
L 47.081244 91.060939 
L 47.660337 91.144932 
L 48.239501 91.038345 
L 48.818595 90.737369 
L 49.397688 90.240185 
L 49.976781 89.547126 
L 51.135039 87.587381 
L 52.293226 85.031911 
L 53.451412 81.964105 
L 56.926114 72.121378 
L 58.084301 69.863971 
L 58.663394 69.127273 
L 59.242488 68.700179 
L 59.821652 68.605434 
L 60.400745 68.766089 
L 60.979838 69.238696 
L 61.558932 70.017774 
L 62.138025 71.077152 
L 63.296283 73.887689 
L 65.033563 79.150348 
L 67.350007 86.250945 
L 68.508264 89.209725 
L 69.666451 91.387588 
L 70.245545 92.207089 
L 70.824638 92.832124 
L 71.403802 93.253963 
L 71.982895 93.465186 
L 72.561989 93.459284 
L 73.141082 93.218659 
L 73.720176 92.725977 
L 74.29934 91.980529 
L 74.878433 90.976927 
L 76.03662 88.176638 
L 77.194877 84.29949 
L 78.353064 79.360098 
L 79.511251 73.413907 
L 81.248602 63.169005 
L 82.985953 52.778384 
L 84.144139 46.894325 
L 84.723233 44.529616 
L 85.302326 42.642418 
L 85.88149 41.2756 
L 86.460584 41.112626 
L 87.039677 41.936346 
L 87.61877 43.218246 
L 88.777028 46.819792 
L 92.830752 61.371579 
L 93.988939 64.208797 
L 95.147196 66.189399 
L 96.305383 67.581694 
L 99.200921 70.090487 
L 99.780014 70.939821 
L 100.359178 72.225695 
L 100.938272 73.880387 
L 101.517365 75.931862 
L 102.675552 81.270336 
L 103.833809 88.061496 
L 108.466627 117.951885 
L 109.624884 123.589098 
L 110.783071 128.061174 
L 111.941329 131.617294 
L 113.099515 134.321652 
L 114.257702 136.222215 
L 114.836866 136.863265 
L 115.41596 137.334727 
L 115.995053 137.640163 
L 116.574146 137.781641 
L 117.15324 137.759651 
L 117.732404 137.573032 
L 118.311497 137.218951 
L 118.890591 136.68617 
L 119.469684 135.945156 
L 120.627941 133.881077 
L 121.786128 130.966106 
L 122.944315 127.10098 
L 124.102572 122.112326 
L 125.260759 115.869922 
L 126.99811 104.628122 
L 129.314554 88.738675 
L 130.472741 82.269588 
L 131.051834 79.741494 
L 131.630928 77.749851 
L 132.210092 76.297382 
L 132.789185 75.351698 
L 133.368279 74.853056 
L 133.947372 74.725131 
L 134.526465 74.886569 
L 135.105629 75.261407 
L 136.263816 76.421656 
L 137.422003 77.961177 
L 138.58026 80.019277 
L 139.159354 81.401912 
L 139.738447 83.105895 
L 140.317541 85.20989 
L 140.896705 87.779817 
L 142.054891 94.4385 
L 143.213078 102.915237 
L 146.68778 130.337148 
L 147.845967 137.535381 
L 149.004153 143.334209 
L 150.162411 147.870563 
L 151.320598 151.3372 
L 152.478855 153.948456 
L 153.637042 155.88362 
L 154.795229 157.273169 
L 155.953486 158.225622 
L 157.111673 158.807498 
L 158.26993 159.055034 
L 159.428117 158.968037 
L 160.586304 158.511541 
L 161.744561 157.654504 
L 162.902748 156.303146 
L 164.061006 154.306988 
L 165.219192 151.405902 
L 166.377379 147.254287 
L 167.535637 141.362692 
L 168.693823 133.115043 
L 169.852081 122.01029 
L 171.010268 108.394502 
L 172.747618 87.144959 
L 173.326712 81.471737 
L 173.905805 77.101751 
L 174.484899 74.155372 
L 175.063992 72.569584 
L 175.643156 72.302587 
L 176.222249 73.008688 
L 176.801343 74.539978 
L 177.380436 76.857618 
L 177.95953 80.037492 
L 178.538694 84.233502 
L 179.117787 89.597816 
L 180.275974 103.800678 
L 182.592418 135.858779 
L 183.750605 147.471331 
L 184.908862 155.311394 
L 185.487956 158.114521 
L 186.067049 160.350534 
L 186.646142 162.137283 
L 187.8044 164.70604 
L 188.962587 166.36752 
L 190.120844 167.460009 
L 191.279031 168.186234 
L 192.437218 168.67013 
L 194.174568 169.084192 
L 195.911919 169.221112 
L 197.649199 169.096633 
L 198.807457 168.821978 
L 199.965644 168.302334 
L 200.544737 167.899729 
L 201.12383 167.354033 
L 201.702994 166.606072 
L 202.282088 165.56517 
L 202.861181 164.091305 
L 203.440275 161.955039 
L 204.019368 158.844168 
L 204.598532 154.35403 
L 205.177625 148.169635 
L 206.335812 133.350297 
L 206.914906 129.086628 
L 207.49407 129.538123 
L 208.073163 134.598116 
L 209.810443 160.339766 
L 210.389607 165.298368 
L 210.968701 168.084503 
L 211.547794 169.575276 
L 212.126887 170.372 
L 212.705981 170.806858 
L 213.864238 171.193061 
L 215.601518 171.362439 
L 220.234407 171.425039 
L 276.407808 171.429972 
L 473.033261 171.429972 
L 473.033261 171.429972 
" clip-path="url(#pd82a498367)" style="fill: none; stroke: #2a2a2a; stroke-width: 1.8; stroke-linecap: square"/>
   </g>
   <g id="line2d_31">
    <path d="M 34.92 85.526158 
L 36.078187 88.025839 
L 37.236444 89.743246 
L 37.815538 90.278705 
L 38.394631 90.588479 
L 38.973724 90.667666 
L 39.552888 90.441351 
L 40.131982 89.953646 
L 40.711075 89.226472 
L 41.290169 88.26135 
L 42.448426 85.637875 
L 43.606613 82.215208 
L 45.343964 76.085146 
L 47.660337 67.531131 
L 48.818595 64.131357 
L 49.397688 62.87236 
L 49.976781 61.9763 
L 50.555875 61.478049 
L 51.135039 61.394883 
L 51.714132 61.754932 
L 52.293226 62.52761 
L 52.872319 63.638685 
L 54.030576 66.669425 
L 55.767857 72.318139 
L 57.505207 77.877159 
L 58.663394 81.000667 
L 59.821652 83.414617 
L 60.400745 84.252089 
L 60.979838 84.879439 
L 61.558932 85.296951 
L 62.138025 85.498146 
L 62.717189 85.477866 
L 63.296283 85.23198 
L 63.875376 84.757308 
L 64.454469 84.05152 
L 65.033563 83.113314 
L 66.19182 80.540598 
L 67.350007 77.060565 
L 68.508264 72.718582 
L 70.245545 64.359968 
L 73.720176 46.55393 
L 74.878433 42.153045 
L 75.457527 40.595612 
L 76.03662 39.520046 
L 76.615713 38.938395 
L 77.194877 38.838766 
L 77.773971 39.407273 
L 78.353064 40.400182 
L 79.511251 43.309291 
L 82.406789 51.885103 
L 83.565046 54.360706 
L 84.144139 55.214778 
L 84.723233 55.783157 
L 85.302326 56.054177 
L 85.88149 56.024266 
L 87.61877 56.65098 
L 88.197864 56.55604 
L 90.514308 55.736626 
L 91.093401 55.809632 
L 91.672565 56.198222 
L 92.251659 57.014856 
L 92.830752 58.339234 
L 93.409846 60.224896 
L 93.988939 62.691719 
L 95.147196 69.26157 
L 96.305383 77.794542 
L 99.200921 100.618454 
L 100.938272 112.074604 
L 102.096458 118.135193 
L 103.254716 122.899842 
L 104.412903 126.493617 
L 105.571089 129.049958 
L 106.150253 129.975817 
L 106.729347 130.68256 
L 107.30844 131.179775 
L 107.887534 131.474915 
L 108.466627 131.573511 
L 109.045791 131.479283 
L 109.624884 131.108533 
L 110.203978 130.498828 
L 110.783071 129.685916 
L 111.941329 127.43172 
L 113.099515 124.310023 
L 114.257702 120.252509 
L 115.41596 115.144529 
L 117.15324 106.173593 
L 119.469684 93.921667 
L 120.627941 88.939449 
L 121.207035 87.038196 
L 121.786128 85.576281 
L 122.365222 84.552619 
L 122.944315 83.938981 
L 124.102572 83.513443 
L 124.681666 83.52371 
L 125.839853 83.993264 
L 127.577203 85.154403 
L 128.73539 86.119075 
L 129.314554 86.727868 
L 129.893648 87.526737 
L 130.472741 88.596205 
L 131.051834 90.020589 
L 131.630928 91.876937 
L 132.210092 94.222369 
L 133.368279 100.433159 
L 134.526465 108.338918 
L 137.422003 129.566311 
L 138.58026 136.560127 
L 139.738447 142.203793 
L 140.896705 146.640738 
L 142.054891 150.04292 
L 143.213078 152.597022 
L 144.371336 154.45721 
L 145.529522 155.761471 
L 146.68778 156.601607 
L 147.845967 157.030516 
L 149.004153 157.075351 
L 150.162411 156.739348 
L 151.320598 155.970285 
L 152.478855 154.688504 
L 153.637042 152.764188 
L 154.795229 150.014374 
L 155.953486 146.167544 
L 157.111673 140.883383 
L 158.26993 133.817626 
L 159.428117 124.719304 
L 162.902748 93.267808 
L 163.481842 89.987248 
L 164.061006 87.723498 
L 164.640099 86.327455 
L 165.219192 85.690161 
L 165.798286 85.778426 
L 166.377379 86.507391 
L 166.956543 87.866574 
L 167.535637 89.930606 
L 168.11473 92.842294 
L 168.693823 96.760354 
L 169.272917 101.778977 
L 170.431174 114.770097 
L 172.168454 135.871127 
L 173.326712 146.905188 
L 174.484899 154.644534 
L 175.643156 159.754593 
L 176.801343 163.061754 
L 177.95953 165.206433 
L 179.117787 166.614119 
L 180.275974 167.547751 
L 181.434231 168.166816 
L 182.592418 168.567381 
L 184.329769 168.87198 
L 186.067049 168.878685 
L 187.225306 168.703227 
L 188.383493 168.324605 
L 189.54168 167.623719 
L 190.120844 167.081312 
L 190.699937 166.344405 
L 191.279031 165.331373 
L 191.858124 163.923399 
L 192.437218 161.945697 
L 193.016382 159.148323 
L 193.595475 155.238359 
L 194.174568 150.011991 
L 195.332755 137.534846 
L 195.911919 133.407425 
L 196.491013 132.847556 
L 197.070106 136.121622 
L 197.649199 142.611549 
L 198.807457 158.440037 
L 199.38655 163.906402 
L 199.965644 167.219646 
L 200.544737 169.069895 
L 201.12383 170.079834 
L 201.702994 170.635942 
L 202.282088 170.949118 
L 203.440275 171.239442 
L 205.177625 171.37382 
L 210.389607 171.426737 
L 297.255735 171.429972 
L 473.033261 171.429972 
L 473.033261 171.429972 
" clip-path="url(#pd82a498367)" style="fill: none; stroke-dasharray: 5,2.5; stroke-dashoffset: 0; stroke: #596da8; stroke-width: 1.25"/>
   </g>
   <g id="line2d_32">
    <path d="M 34.92 100.006637 
L 36.078187 103.040122 
L 37.236444 105.360914 
L 38.394631 106.903161 
L 38.973724 107.369577 
L 39.552888 107.576072 
L 40.131982 107.553096 
L 40.711075 107.312868 
L 41.290169 106.851047 
L 41.869262 106.163272 
L 42.448426 105.245107 
L 43.606613 102.738051 
L 44.7648 99.385737 
L 45.923057 95.158632 
L 47.081244 90.125763 
L 48.818595 81.451359 
L 51.135039 69.662874 
L 52.293226 64.987171 
L 52.872319 63.157406 
L 53.451412 61.703763 
L 54.030576 60.649925 
L 54.60967 60.001522 
L 55.188763 59.745114 
L 55.767857 59.856723 
L 56.34695 60.297912 
L 56.926114 60.990291 
L 58.084301 62.897319 
L 60.400745 67.13614 
L 61.558932 68.656595 
L 62.138025 69.204596 
L 62.717189 69.583535 
L 63.296283 69.777996 
L 63.875376 69.776616 
L 64.454469 69.571545 
L 65.033563 69.15832 
L 65.612727 68.535776 
L 66.19182 67.706428 
L 67.350007 65.455638 
L 68.508264 62.487598 
L 70.245545 56.598009 
L 71.982895 50.551515 
L 73.141082 47.184255 
L 73.720176 45.894516 
L 74.29934 44.985545 
L 74.878433 44.506772 
L 75.457527 44.489086 
L 76.03662 44.942215 
L 76.615713 45.853486 
L 77.194877 47.189032 
L 78.353064 51.44918 
L 80.090415 59.35073 
L 81.827695 67.083257 
L 82.985953 71.326962 
L 84.144139 74.496628 
L 84.723233 75.624686 
L 85.302326 76.429642 
L 87.039677 77.843646 
L 87.61877 77.924434 
L 88.197864 77.672999 
L 88.777028 77.106714 
L 89.356121 76.247612 
L 90.514308 73.769767 
L 91.672565 70.416093 
L 93.409846 65.128877 
L 93.988939 63.694455 
L 94.568103 62.612038 
L 95.147196 61.991999 
L 95.72629 61.996003 
L 96.305383 62.661671 
L 96.884477 64.008316 
L 97.463641 66.020024 
L 98.621827 71.761789 
L 99.780014 79.047451 
L 102.096458 94.9248 
L 103.254716 101.696458 
L 104.412903 107.251876 
L 105.571089 111.538666 
L 106.729347 114.601827 
L 107.30844 115.698432 
L 107.887534 116.518492 
L 108.466627 117.071176 
L 109.045791 117.364664 
L 109.624884 117.28419 
L 110.203978 116.892488 
L 110.783071 116.247515 
L 111.362165 115.350437 
L 111.941329 114.20299 
L 113.099515 111.175319 
L 114.257702 107.168764 
L 115.995053 99.442354 
L 118.311497 88.725853 
L 119.469684 84.460468 
L 120.048777 82.857973 
L 120.627941 81.717779 
L 121.207035 81.052473 
L 121.786128 80.842009 
L 122.365222 81.037566 
L 122.944315 81.568234 
L 126.419017 86.091983 
L 126.99811 86.5821 
L 127.577203 86.900855 
L 128.156297 87.042463 
L 128.73539 87.013952 
L 129.893648 86.589412 
L 131.051834 86.149133 
L 131.630928 86.167495 
L 132.210092 86.507802 
L 132.789185 87.29704 
L 133.368279 88.647835 
L 133.947372 90.639625 
L 134.526465 93.301389 
L 135.684723 100.448584 
L 138.001167 118.275406 
L 139.159354 126.582728 
L 140.317541 133.592087 
L 141.475798 139.209284 
L 142.633985 143.543853 
L 143.792242 146.78332 
L 144.950429 149.113312 
L 146.108616 150.703188 
L 147.266873 151.657277 
L 147.845967 151.915984 
L 148.42506 152.034277 
L 149.004153 152.019944 
L 149.583318 151.870587 
L 150.162411 151.575272 
L 150.741504 151.125655 
L 151.320598 150.509896 
L 151.899691 149.712295 
L 152.478855 148.712764 
L 153.637042 146.004956 
L 154.795229 142.143738 
L 155.953486 136.802471 
L 157.111673 129.654018 
L 158.26993 120.573583 
L 160.007211 104.205481 
L 161.165468 93.811258 
L 161.744561 89.698252 
L 162.323655 86.587102 
L 162.902748 84.528473 
L 163.481842 83.441171 
L 164.061006 83.153277 
L 164.640099 83.36517 
L 165.219192 83.911919 
L 165.798286 84.774642 
L 166.377379 85.940744 
L 166.956543 87.504842 
L 167.535637 89.660002 
L 168.11473 92.662406 
L 168.693823 96.756292 
L 169.272917 102.068501 
L 170.431174 115.815346 
L 172.168454 137.350681 
L 173.326712 148.099978 
L 174.484899 155.443305 
L 175.063992 158.090998 
L 175.643156 160.218972 
L 176.801343 163.287214 
L 177.95953 165.269219 
L 179.117787 166.563737 
L 180.275974 167.412264 
L 181.434231 167.958206 
L 182.592418 168.28515 
L 183.750605 168.435857 
L 184.908862 168.421615 
L 186.067049 168.221511 
L 187.225306 167.771941 
L 188.383493 166.920328 
L 188.962587 166.252844 
L 189.54168 165.338442 
L 190.120844 164.072129 
L 190.699937 162.298977 
L 191.279031 159.797641 
L 191.858124 156.298964 
L 192.437218 151.572767 
L 194.174568 134.684255 
L 194.753662 133.01574 
L 195.332755 134.985686 
L 195.911919 140.197283 
L 197.649199 162.010216 
L 198.228293 166.13905 
L 198.807457 168.499241 
L 199.38655 169.784732 
L 199.965644 170.48251 
L 200.544737 170.868122 
L 201.702994 171.214766 
L 203.440275 171.369073 
L 208.073163 171.425778 
L 272.354084 171.429972 
L 473.033261 171.429972 
L 473.033261 171.429972 
" clip-path="url(#pd82a498367)" style="fill: none; stroke-dasharray: 2.5,2.5; stroke-dashoffset: 0; stroke: #8a7bb8; stroke-width: 1.25"/>
   </g>
   <g id="line2d_33">
    <path d="M 34.92 78.330837 
L 35.499093 78.413053 
L 36.078187 78.669197 
L 36.657351 79.113987 
L 37.236444 79.754061 
L 38.394631 81.604516 
L 40.131982 85.334105 
L 44.185706 94.967553 
L 45.343964 96.953484 
L 46.50215 98.34916 
L 47.081244 98.796868 
L 47.660337 99.066107 
L 48.239501 99.149855 
L 48.818595 99.04222 
L 49.397688 98.738367 
L 49.976781 98.234424 
L 50.555875 97.527555 
L 51.714132 95.529428 
L 52.872319 92.842715 
L 54.030576 89.442373 
L 55.767857 83.297919 
L 58.663394 72.797363 
L 59.821652 69.524838 
L 60.400745 68.243115 
L 60.979838 67.260512 
L 61.558932 66.608252 
L 62.138025 66.299892 
L 62.717189 66.335372 
L 63.296283 66.70101 
L 63.875376 67.370613 
L 64.454469 68.307655 
L 65.612727 70.802579 
L 69.666451 80.818704 
L 70.824638 82.712372 
L 71.403802 83.394337 
L 71.982895 83.878856 
L 72.561989 84.153909 
L 73.141082 84.20501 
L 73.720176 84.010422 
L 74.29934 83.562225 
L 74.878433 82.854626 
L 75.457527 81.883152 
L 76.03662 80.645081 
L 77.194877 77.368915 
L 78.353064 73.112623 
L 79.511251 67.915943 
L 81.827695 55.940768 
L 82.985953 50.200588 
L 84.144139 45.519443 
L 84.723233 43.778394 
L 85.302326 42.518164 
L 85.88149 41.772324 
L 86.460584 42.201474 
L 87.039677 43.573959 
L 88.197864 47.486567 
L 89.935215 54.936182 
L 91.672565 62.251588 
L 92.830752 66.259381 
L 93.988939 69.284551 
L 94.568103 70.398906 
L 95.72629 71.904053 
L 96.305383 72.323239 
L 96.884477 72.5214 
L 97.463641 72.534104 
L 98.621827 72.191467 
L 99.780014 71.76728 
L 100.359178 71.841813 
L 100.938272 72.153619 
L 101.517365 72.773031 
L 102.096458 73.772263 
L 102.675552 75.205637 
L 103.254716 77.103014 
L 104.412903 82.259399 
L 105.571089 88.898977 
L 109.624884 113.999867 
L 110.783071 119.371629 
L 111.941329 123.798736 
L 113.099515 127.276385 
L 114.257702 129.820237 
L 115.41596 131.433731 
L 115.995053 131.94566 
L 116.574146 132.265721 
L 117.15324 132.395633 
L 117.732404 132.33549 
L 118.311497 132.083747 
L 118.890591 131.629487 
L 119.469684 130.941407 
L 120.048777 130.042187 
L 121.207035 127.572682 
L 122.365222 124.138416 
L 123.523479 119.66128 
L 124.681666 113.874032 
L 125.839853 106.97533 
L 129.893648 80.841049 
L 130.472741 78.171837 
L 131.051834 76.033223 
L 131.630928 74.447357 
L 132.210092 73.39718 
L 132.789185 72.831639 
L 133.368279 72.674205 
L 133.947372 72.834869 
L 134.526465 73.221462 
L 135.684723 74.349128 
L 138.58026 77.528709 
L 139.159354 78.394007 
L 139.738447 79.4877 
L 140.317541 80.909817 
L 140.896705 82.760439 
L 141.475798 85.124365 
L 142.054891 88.056602 
L 143.213078 95.616014 
L 144.950429 109.833029 
L 146.68778 124.17857 
L 147.845967 132.364459 
L 149.004153 139.083511 
L 150.162411 144.392617 
L 151.320598 148.467023 
L 152.478855 151.540777 
L 153.637042 153.819446 
L 154.795229 155.456248 
L 155.953486 156.581594 
L 157.111673 157.275805 
L 158.26993 157.583618 
L 159.428117 157.507163 
L 160.586304 157.008301 
L 161.744561 156.052841 
L 162.902748 154.534747 
L 164.061006 152.283166 
L 165.219192 149.004126 
L 166.377379 144.311908 
L 167.535637 137.676762 
L 168.693823 128.481618 
L 169.852081 116.36413 
L 172.747618 81.74219 
L 173.326712 76.901075 
L 173.905805 73.478437 
L 174.484899 71.460202 
L 175.063992 70.676523 
L 175.643156 71.028282 
L 176.222249 72.167674 
L 176.801343 73.982394 
L 177.380436 76.489445 
L 177.95953 79.825834 
L 178.538694 84.198462 
L 179.117787 89.787848 
L 180.275974 104.534483 
L 182.013325 129.694202 
L 183.171511 143.141779 
L 184.329769 152.506882 
L 184.908862 155.88268 
L 185.487956 158.575726 
L 186.067049 160.71892 
L 187.225306 163.792522 
L 188.383493 165.761959 
L 189.54168 167.045372 
L 190.699937 167.892838 
L 191.858124 168.453958 
L 193.016382 168.817993 
L 194.753662 169.091596 
L 196.491013 169.09041 
L 197.649199 168.919302 
L 198.807457 168.552175 
L 199.965644 167.868644 
L 200.544737 167.334837 
L 201.12383 166.602685 
L 201.702994 165.583818 
L 202.282088 164.142323 
L 202.861181 162.069428 
L 203.440275 159.038881 
L 204.019368 154.662542 
L 204.598532 148.623479 
L 205.756719 134.043538 
L 206.335812 129.779481 
L 206.914906 130.149636 
L 207.49407 135.062996 
L 209.23135 160.391761 
L 209.810443 165.354896 
L 210.389607 168.134395 
L 210.968701 169.613563 
L 211.547794 170.399587 
L 212.126887 170.826243 
L 213.285145 171.202571 
L 215.022425 171.366065 
L 219.655313 171.425425 
L 279.88251 171.429972 
L 473.033261 171.429972 
L 473.033261 171.429972 
" clip-path="url(#pd82a498367)" style="fill: none; stroke: #c95c58; stroke-width: 1.75; stroke-linecap: square"/>
   </g>
   <g id="patch_4">
    <path d="M 34.92 177.99836 
L 34.92 26.925419 
" style="fill: none; stroke: #000000; stroke-width: 0.8; stroke-linejoin: miter; stroke-linecap: square"/>
   </g>
   <g id="patch_5">
    <path d="M 34.92 177.99836 
L 222.941739 177.99836 
" style="fill: none; stroke: #000000; stroke-width: 0.8; stroke-linejoin: miter; stroke-linecap: square"/>
   </g>
   <g id="text_15">
    <text style="font-weight: 700; font-size: 9px; font-family: 'Arial', 'DejaVu Sans', 'Liberation Sans', sans-serif; text-anchor: start; fill: #2a2a2a" x="10.477174" y="10.042031" transform="rotate(-0 10.477174 10.042031)">a</text>
   </g>
   <g id="text_16">
    <text style="font-weight: 700; font-size: 9px; font-family: 'Arial', 'DejaVu Sans', 'Liberation Sans', sans-serif; text-anchor: middle" x="128.93087" y="16.925419" transform="rotate(-0 128.93087 16.925419)">Low MSE can still hide peak-valid failures</text>
   </g>
   <g id="legend_1">
    <g id="line2d_34">
     <path d="M 111.693145 35.785888 
L 118.693145 35.785888 
L 125.693145 35.785888 
" style="fill: none; stroke: #2a2a2a; stroke-width: 1.8; stroke-linecap: square"/>
    </g>
    <g id="text_17">
     <text style="font-size: 7px; font-family: 'Arial', 'DejaVu Sans', 'Liberation Sans', sans-serif; text-anchor: start" x="131.293145" y="38.235888" transform="rotate(-0 131.293145 38.235888)">Target</text>
    </g>
    <g id="line2d_35">
     <path d="M 111.693145 45.769638 
L 118.693145 45.769638 
L 125.693145 45.769638 
" style="fill: none; stroke-dasharray: 5,2.5; stroke-dashoffset: 0; stroke: #596da8; stroke-width: 1.25"/>
    </g>
    <g id="text_18">
     <text style="font-size: 7px; font-family: 'Arial', 'DejaVu Sans', 'Liberation Sans', sans-serif; text-anchor: start" x="131.293145" y="48.219638" transform="rotate(-0 131.293145 48.219638)">Baseline</text>
    </g>
    <g id="line2d_36">
     <path d="M 172.143614 35.785888 
L 179.143614 35.785888 
L 186.143614 35.785888 
" style="fill: none; stroke-dasharray: 2.5,2.5; stroke-dashoffset: 0; stroke: #8a7bb8; stroke-width: 1.25"/>
    </g>
    <g id="text_19">
     <text style="font-size: 7px; font-family: 'Arial', 'DejaVu Sans', 'Liberation Sans', sans-serif; text-anchor: start" x="191.743614" y="38.235888" transform="rotate(-0 191.743614 38.235888)">Teacher</text>
    </g>
    <g id="line2d_37">
     <path d="M 172.143614 45.687607 
L 179.143614 45.687607 
L 186.143614 45.687607 
" style="fill: none; stroke: #c95c58; stroke-width: 1.75; stroke-linecap: square"/>
    </g>
    <g id="text_20">
     <text style="font-size: 7px; font-family: 'Arial', 'DejaVu Sans', 'Liberation Sans', sans-serif; text-anchor: start" x="191.743614" y="48.137607" transform="rotate(-0 191.743614 48.137607)">Hybrid</text>
    </g>
   </g>
  </g>
  <g id="axes_2">
   <g id="patch_6">
    <path d="M 279.348261 177.99836 
L 467.37 177.99836 
L 467.37 26.925419 
L 279.348261 26.925419 
z
" style="fill: #ffffff"/>
   </g>
   <g id="line2d_38">
    <path d="M 297.400769 177.99836 
L 297.400769 26.925419 
" clip-path="url(#pa48b649060)" style="fill: none; stroke: #bfbfbf; stroke-width: 0.65; stroke-linecap: square"/>
   </g>
   <g id="line2d_39">
    <path d="M 333.474323 177.99836 
L 333.474323 26.925419 
" clip-path="url(#pa48b649060)" style="fill: none; stroke: #bfbfbf; stroke-width: 0.65; stroke-linecap: square"/>
   </g>
   <g id="line2d_40">
    <path d="M 397.779349 177.99836 
L 397.779349 26.925419 
" clip-path="url(#pa48b649060)" style="fill: none; stroke: #bfbfbf; stroke-width: 0.65; stroke-linecap: square"/>
   </g>
   <g id="line2d_41">
    <path d="M 454.24239 177.99836 
L 454.24239 26.925419 
" clip-path="url(#pa48b649060)" style="fill: none; stroke: #bfbfbf; stroke-width: 0.65; stroke-linecap: square"/>
   </g>
   <g id="patch_7">
    <path d="M 325.640084 177.99836 
L 341.308562 177.99836 
L 341.308562 26.925419 
L 325.640084 26.925419 
z
" clip-path="url(#pa48b649060)" style="fill: #f3e8d2; opacity: 0.22"/>
   </g>
   <g id="matplotlib.axis_3">
    <g id="xtick_8">
     <g id="line2d_42">
      <path d="M 302.850978 177.99836 
L 302.850978 26.925419 
" clip-path="url(#pa48b649060)" style="fill: none; stroke: #e7e7e7; stroke-width: 0.7; stroke-linecap: square"/>
     </g>
     <g id="line2d_43">
      <g>
       <use xlink:href="#m09db8213d4" x="302.850978" y="177.99836" style="stroke: #000000; stroke-width: 0.8"/>
      </g>
     </g>
     <g id="text_21">
      <text style="font-size: 8px; font-family: 'Arial', 'DejaVu Sans', 'Liberation Sans', sans-serif; text-anchor: middle" x="302.850978" y="190.72461" transform="rotate(-0 302.850978 190.72461)">3100</text>
     </g>
    </g>
    <g id="xtick_9">
     <g id="line2d_44">
      <path d="M 342.022174 177.99836 
L 342.022174 26.925419 
" clip-path="url(#pa48b649060)" style="fill: none; stroke: #e7e7e7; stroke-width: 0.7; stroke-linecap: square"/>
     </g>
     <g id="line2d_45">
      <g>
       <use xlink:href="#m09db8213d4" x="342.022174" y="177.99836" style="stroke: #000000; stroke-width: 0.8"/>
      </g>
     </g>
     <g id="text_22">
      <text style="font-size: 8px; font-family: 'Arial', 'DejaVu Sans', 'Liberation Sans', sans-serif; text-anchor: middle" x="342.022174" y="190.72461" transform="rotate(-0 342.022174 190.72461)">3200</text>
     </g>
    </g>
    <g id="xtick_10">
     <g id="line2d_46">
      <path d="M 381.19337 177.99836 
L 381.19337 26.925419 
" clip-path="url(#pa48b649060)" style="fill: none; stroke: #e7e7e7; stroke-width: 0.7; stroke-linecap: square"/>
     </g>
     <g id="line2d_47">
      <g>
       <use xlink:href="#m09db8213d4" x="381.19337" y="177.99836" style="stroke: #000000; stroke-width: 0.8"/>
      </g>
     </g>
     <g id="text_23">
      <text style="font-size: 8px; font-family: 'Arial', 'DejaVu Sans', 'Liberation Sans', sans-serif; text-anchor: middle" x="381.19337" y="190.72461" transform="rotate(-0 381.19337 190.72461)">3300</text>
     </g>
    </g>
    <g id="xtick_11">
     <g id="line2d_48">
      <path d="M 420.364565 177.99836 
L 420.364565 26.925419 
" clip-path="url(#pa48b649060)" style="fill: none; stroke: #e7e7e7; stroke-width: 0.7; stroke-linecap: square"/>
     </g>
     <g id="line2d_49">
      <g>
       <use xlink:href="#m09db8213d4" x="420.364565" y="177.99836" style="stroke: #000000; stroke-width: 0.8"/>
      </g>
     </g>
     <g id="text_24">
      <text style="font-size: 8px; font-family: 'Arial', 'DejaVu Sans', 'Liberation Sans', sans-serif; text-anchor: middle" x="420.364565" y="190.72461" transform="rotate(-0 420.364565 190.72461)">3400</text>
     </g>
    </g>
    <g id="xtick_12">
     <g id="line2d_50">
      <path d="M 459.535761 177.99836 
L 459.535761 26.925419 
" clip-path="url(#pa48b649060)" style="fill: none; stroke: #e7e7e7; stroke-width: 0.7; stroke-linecap: square"/>
     </g>
     <g id="line2d_51">
      <g>
       <use xlink:href="#m09db8213d4" x="459.535761" y="177.99836" style="stroke: #000000; stroke-width: 0.8"/>
      </g>
     </g>
     <g id="text_25">
      <text style="font-size: 8px; font-family: 'Arial', 'DejaVu Sans', 'Liberation Sans', sans-serif; text-anchor: middle" x="459.535761" y="190.72461" transform="rotate(-0 459.535761 190.72461)">3500</text>
     </g>
    </g>
    <g id="text_26">
     <text style="font-size: 8px; font-family: 'Arial', 'DejaVu Sans', 'Liberation Sans', sans-serif; text-anchor: middle" x="373.35913" y="202.13836" transform="rotate(-0 373.35913 202.13836)">Wavelength (nm)</text>
    </g>
   </g>
   <g id="matplotlib.axis_4">
    <g id="ytick_6">
     <g id="line2d_52">
      <path d="M 279.348261 177.99836 
L 467.37 177.99836 
" clip-path="url(#pa48b649060)" style="fill: none; stroke: #e7e7e7; stroke-width: 0.7; stroke-linecap: square"/>
     </g>
     <g id="line2d_53">
      <g>
       <use xlink:href="#m48c30b2fb4" x="279.348261" y="177.99836" style="stroke: #000000; stroke-width: 0.8"/>
      </g>
     </g>
     <g id="text_27">
      <!-- $-\pi$ -->
      <g transform="translate(260.828261 180.861485)">
       <text>
        <tspan x="0" y="-0.625" style="font-size: 8px; font-family: 'DejaVu Sans'">−</tspan>
        <tspan x="6.703125" y="-0.625" style="font-style: oblique; font-size: 8px; font-family: 'DejaVu Sans'">π</tspan>
       </text>
      </g>
     </g>
    </g>
    <g id="ytick_7">
     <g id="line2d_54">
      <path d="M 279.348261 102.46189 
L 467.37 102.46189 
" clip-path="url(#pa48b649060)" style="fill: none; stroke: #e7e7e7; stroke-width: 0.7; stroke-linecap: square"/>
     </g>
     <g id="line2d_55">
      <g>
       <use xlink:href="#m48c30b2fb4" x="279.348261" y="102.46189" style="stroke: #000000; stroke-width: 0.8"/>
      </g>
     </g>
     <g id="text_28">
      <text style="font-size: 8px; font-family: 'Arial', 'DejaVu Sans', 'Liberation Sans', sans-serif; text-anchor: end" x="272.348261" y="105.325015" transform="rotate(-0 272.348261 105.325015)">0</text>
     </g>
    </g>
    <g id="ytick_8">
     <g id="line2d_56">
      <path d="M 279.348261 26.925419 
L 467.37 26.925419 
" clip-path="url(#pa48b649060)" style="fill: none; stroke: #e7e7e7; stroke-width: 0.7; stroke-linecap: square"/>
     </g>
     <g id="line2d_57">
      <g>
       <use xlink:href="#m48c30b2fb4" x="279.348261" y="26.925419" style="stroke: #000000; stroke-width: 0.8"/>
      </g>
     </g>
     <g id="text_29">
      <!-- $\pi$ -->
      <g transform="translate(267.468261 29.788544)">
       <text>
        <tspan x="0" y="-0.625" style="font-style: oblique; font-size: 8px; font-family: 'DejaVu Sans'">π</tspan>
       </text>
      </g>
     </g>
    </g>
    <g id="text_30">
     <!-- wrapped $\Phi(\lambda)$ -->
     <g transform="translate(255.228261 127.58189) rotate(-90)">
      <text>
       <tspan x="0" y="-0.921875" style="font-size: 8px; font-family: 'Arial'">w</tspan>
       <tspan x="5.777344" y="-0.921875" style="font-size: 8px; font-family: 'Arial'">r</tspan>
       <tspan x="8.441406" y="-0.921875" style="font-size: 8px; font-family: 'Arial'">a</tspan>
       <tspan x="12.890625" y="-0.921875" style="font-size: 8px; font-family: 'Arial'">p</tspan>
       <tspan x="17.339844" y="-0.921875" style="font-size: 8px; font-family: 'Arial'">p</tspan>
       <tspan x="21.789062" y="-0.921875" style="font-size: 8px; font-family: 'Arial'">e</tspan>
       <tspan x="26.238281" y="-0.921875" style="font-size: 8px; font-family: 'Arial'">d</tspan>
       <tspan x="30.6875" y="-0.921875" style="font-size: 8px; font-family: 'Arial'"> </tspan>
       <tspan x="32.910156" y="-0.921875" style="font-size: 8px; font-family: 'DejaVu Sans'">Φ</tspan>
       <tspan x="39.207031" y="-0.921875" style="font-size: 8px; font-family: 'DejaVu Sans'">(</tspan>
       <tspan x="47.0625" y="-0.921875" style="font-size: 8px; font-family: 'DejaVu Sans'">)</tspan>
       <tspan x="42.328125" y="-0.921875" style="font-style: oblique; font-size: 8px; font-family: 'DejaVu Sans'">λ</tspan>
      </text>
     </g>
    </g>
   </g>
   <g id="line2d_58">
    <path d="M 279.363945 91.955365 
L 281.716607 96.820297 
L 284.069174 101.701944 
L 286.421837 106.590328 
L 288.774404 111.428324 
L 291.127066 116.307042 
L 293.479729 121.154519 
L 295.832296 126.031696 
L 298.184958 130.927146 
L 300.537525 135.777196 
L 302.890188 140.66425 
L 305.24285 145.534906 
L 307.595417 150.260401 
L 309.94808 154.537968 
L 312.300647 156.608945 
L 314.653309 115.082679 
L 317.005972 101.462854 
L 319.358539 103.285392 
L 321.711201 104.00548 
L 324.063768 99.491477 
L 326.416431 89.451885 
L 328.769093 84.155499 
L 331.12166 84.681809 
L 333.474323 87.88947 
L 335.82689 92.423736 
L 338.179552 97.256932 
L 340.532215 102.206972 
L 342.884782 107.158412 
L 345.237444 112.032248 
L 347.590011 116.921294 
L 349.942674 121.727678 
L 352.295336 126.487423 
L 354.647903 131.24798 
L 357.000566 135.971331 
L 359.353133 140.673455 
L 361.705795 145.360047 
L 364.058458 150.01507 
L 366.411025 154.684326 
L 368.763687 159.204268 
L 371.116254 163.312185 
L 373.468917 166.481902 
L 375.821579 166.94584 
L 378.174146 159.616475 
L 380.526809 142.016802 
L 382.879376 131.235907 
L 385.232038 123.511111 
L 387.584701 115.676921 
L 389.937268 111.964284 
L 392.28993 112.584771 
L 394.642497 115.517816 
L 396.99516 119.495505 
L 399.347823 123.896699 
L 401.700389 128.426779 
L 404.053052 132.949731 
L 406.405619 137.379908 
L 408.758281 141.744911 
L 411.110944 146.053897 
L 413.463511 150.308036 
L 415.816174 154.575426 
L 418.16874 158.892258 
L 420.521403 163.280546 
L 422.874066 167.79899 
L 425.226632 172.460784 
L 427.579295 177.208892 
L 429.931862 30.789403 
L 432.284525 34.69696 
L 434.637187 35.637555 
L 436.989754 175.760209 
L 439.342417 153.193042 
L 441.694984 137.142766 
L 444.047646 128.584142 
L 446.400309 129.415783 
L 448.752876 133.821052 
L 451.105538 139.08599 
L 453.458105 144.332339 
L 455.810768 149.301278 
L 458.16343 153.940663 
L 460.515997 158.297896 
L 462.86866 162.444885 
L 465.221227 166.479445 
" clip-path="url(#pa48b649060)" style="fill: none; stroke-dasharray: 4.6,2.3; stroke-dashoffset: 0; stroke: #596da8; stroke-width: 1.15"/>
   </g>
   <g id="line2d_59">
    <path d="M 279.363945 79.348907 
L 281.716607 84.212549 
L 284.069174 89.101718 
L 286.421837 94.010937 
L 288.774404 98.883745 
L 291.127066 103.810282 
L 293.479729 108.714248 
L 295.832296 113.647337 
L 298.184958 118.584816 
L 300.537525 123.442349 
L 302.890188 128.247508 
L 305.24285 132.827033 
L 307.595417 136.658012 
L 309.94808 136.902243 
L 312.300647 93.478621 
L 314.653309 84.667441 
L 317.005972 86.035663 
L 319.358539 86.314514 
L 321.711201 81.941722 
L 324.063768 72.973783 
L 326.416431 68.217404 
L 328.769093 68.728264 
L 331.12166 71.747667 
L 333.474323 75.909071 
L 335.82689 80.739051 
L 338.179552 85.640496 
L 340.532215 90.561447 
L 342.884782 95.44518 
L 345.237444 100.244096 
L 347.590011 105.063455 
L 349.942674 109.819003 
L 352.295336 114.549472 
L 354.647903 119.30128 
L 357.000566 124.036369 
L 359.353133 128.761581 
L 361.705795 133.46429 
L 364.058458 138.092612 
L 366.411025 142.647136 
L 368.763687 146.805469 
L 371.116254 149.948282 
L 373.468917 150.533025 
L 375.821579 143.425065 
L 378.174146 125.930411 
L 380.526809 115.030024 
L 382.879376 107.601982 
L 385.232038 100.168148 
L 387.584701 96.458462 
L 389.937268 96.984797 
L 392.28993 99.831133 
L 394.642497 103.747455 
L 396.99516 108.111772 
L 399.347823 112.620963 
L 401.700389 117.134322 
L 404.053052 121.594052 
L 406.405619 125.959028 
L 408.758281 130.275252 
L 411.110944 134.564991 
L 413.463511 138.837815 
L 415.816174 143.165255 
L 418.16874 147.584446 
L 420.521403 152.108382 
L 422.874066 156.776693 
L 425.226632 161.537515 
L 427.579295 166.153307 
L 429.931862 169.92172 
L 432.284525 170.399112 
L 434.637187 159.004705 
L 436.989754 137.244919 
L 439.342417 121.945811 
L 441.694984 114.023616 
L 444.047646 114.849966 
L 446.400309 119.137303 
L 448.752876 124.320404 
L 451.105538 129.503366 
L 453.458105 134.420785 
L 455.810768 139.033498 
L 458.16343 143.37537 
L 460.515997 147.522047 
L 462.86866 151.558084 
L 465.221227 155.596453 
" clip-path="url(#pa48b649060)" style="fill: none; stroke-dasharray: 2.3,2.3; stroke-dashoffset: 0; stroke: #8a7bb8; stroke-width: 1.15"/>
   </g>
   <g id="line2d_60">
    <path d="M 279.363945 69.499202 
L 281.716607 72.335608 
L 284.069174 75.774458 
L 286.421837 79.576194 
L 288.774404 83.550392 
L 291.127066 87.659424 
L 293.479729 91.796933 
L 295.832296 95.974013 
L 298.184958 100.166819 
L 300.537525 104.327743 
L 302.890188 108.540905 
L 305.24285 112.811911 
L 307.595417 117.146678 
L 309.94808 121.582452 
L 312.300647 126.15064 
L 314.653309 130.789124 
L 317.005972 135.602476 
L 319.358539 140.387465 
L 321.711201 144.904226 
L 324.063768 148.165747 
L 326.416431 140.740629 
L 328.769093 97.006973 
L 331.12166 95.625912 
L 333.474323 96.516182 
L 335.82689 95.524037 
L 338.179552 92.040277 
L 340.532215 88.680924 
L 342.884782 87.901637 
L 345.237444 89.487379 
L 347.590011 92.542122 
L 349.942674 96.335834 
L 352.295336 100.504504 
L 354.647903 104.874929 
L 357.000566 109.281381 
L 359.353133 113.674958 
L 361.705795 118.038191 
L 364.058458 122.369886 
L 366.411025 126.696397 
L 368.763687 131.032129 
L 371.116254 135.389833 
L 373.468917 139.796697 
L 375.821579 144.243023 
L 378.174146 148.71957 
L 380.526809 153.169177 
L 382.879376 157.379672 
L 385.232038 160.959335 
L 387.584701 162.646172 
L 389.937268 157.95798 
L 392.28993 138.837604 
L 394.642497 125.839234 
L 396.99516 119.874292 
L 399.347823 114.045141 
L 401.700389 110.076437 
L 404.053052 109.716534 
L 406.405619 111.90156 
L 408.758281 115.369288 
L 411.110944 119.407984 
L 413.463511 123.635487 
L 415.816174 127.900974 
L 418.16874 132.126565 
L 420.521403 136.277405 
L 422.874066 140.367035 
L 425.226632 144.411187 
L 427.579295 148.425866 
L 429.931862 152.470575 
L 432.284525 156.595641 
L 434.637187 160.877 
L 436.989754 165.341523 
L 439.342417 170.030728 
L 441.694984 174.960848 
L 444.047646 28.851155 
L 446.400309 33.060391 
L 448.752876 33.014914 
L 451.105538 163.793598 
L 453.458105 142.039969 
L 455.810768 129.641616 
L 458.16343 124.928466 
L 460.515997 127.330436 
L 462.86866 132.128428 
L 465.221227 137.386396 
" clip-path="url(#pa48b649060)" style="fill: none; stroke: #c95c58; stroke-width: 1.7; stroke-linecap: square"/>
   </g>
   <g id="line2d_61">
    <path d="M 279.348261 102.46189 
L 467.37 102.46189 
" clip-path="url(#pa48b649060)" style="fill: none; stroke-dasharray: 2.55,2.55; stroke-dashoffset: 0; stroke: #2a2a2a; stroke-width: 0.85"/>
   </g>
   <g id="patch_8">
    <path d="M 279.348261 177.99836 
L 279.348261 26.925419 
" style="fill: none; stroke: #000000; stroke-width: 0.8; stroke-linejoin: miter; stroke-linecap: square"/>
   </g>
   <g id="patch_9">
    <path d="M 279.348261 177.99836 
L 467.37 177.99836 
" style="fill: none; stroke: #000000; stroke-width: 0.8; stroke-linejoin: miter; stroke-linecap: square"/>
   </g>
   <g id="text_31">
    <text style="font-weight: 700; font-size: 9px; font-family: 'Arial', 'DejaVu Sans', 'Liberation Sans', sans-serif; text-anchor: start; fill: #2a2a2a" x="264.306522" y="10.042031" transform="rotate(-0 264.306522 10.042031)">b</text>
   </g>
   <g id="patch_10">
    <path d="M 374.508648 67.473015 
Q 352.288677 84.362024 330.736282 100.743619 
" style="fill: none; stroke: #c95c58; stroke-width: 0.75; stroke-linecap: round"/>
    <path d="M 333.812622 100.163853 
L 330.736282 100.743619 
L 332.118273 97.934687 
z
" style="fill: #c95c58; stroke: #c95c58; stroke-width: 0.75; stroke-linecap: round"/>
   </g>
   <g id="text_32">
    <text style="font-size: 7px; font-family: 'Arial', 'DejaVu Sans', 'Liberation Sans', sans-serif; text-anchor: start; fill: #c95c58" x="356.678906" y="62.789281" transform="rotate(-0 356.678906 62.789281)">target resonance</text>
   </g>
   <g id="text_33">
    <text style="font-weight: 700; font-size: 9px; font-family: 'Arial', 'DejaVu Sans', 'Liberation Sans', sans-serif; text-anchor: middle" x="373.35913" y="16.925419" transform="rotate(-0 373.35913 16.925419)">Round-trip phase residual</text>
   </g>
   <g id="PathCollection_1">
    <defs>
     <path id="m48c0ccea17" d="M 0 2.44949 
C 0.649612 2.44949 1.272706 2.191396 1.732051 1.732051 
C 2.191396 1.272706 2.44949 0.649612 2.44949 0 
C 2.44949 -0.649612 2.191396 -1.272706 1.732051 -1.732051 
C 1.272706 -2.191396 0.649612 -2.44949 0 -2.44949 
C -0.649612 -2.44949 -1.272706 -2.191396 -1.732051 -1.732051 
C -2.191396 -1.272706 -2.44949 -0.649612 -2.44949 0 
C -2.44949 0.649612 -2.191396 1.272706 -1.732051 1.732051 
C -1.272706 2.191396 -0.649612 2.44949 0 2.44949 
z
" style="stroke: #ffffff; stroke-width: 0.5"/>
    </defs>
    <g clip-path="url(#pa48b649060)">
     <use xlink:href="#m48c0ccea17" x="328.475645" y="102.46189" style="fill: #c95c58; stroke: #ffffff; stroke-width: 0.5"/>
    </g>
   </g>
   <g id="legend_2">
    <g id="line2d_62">
     <path d="M 289.408696 38.807347 
L 296.408696 38.807347 
L 303.408696 38.807347 
" style="fill: none; stroke-dasharray: 4.6,2.3; stroke-dashoffset: 0; stroke: #596da8; stroke-width: 1.15"/>
    </g>
    <g id="text_34">
     <text style="font-size: 7px; font-family: 'Arial', 'DejaVu Sans', 'Liberation Sans', sans-serif; text-anchor: start" x="309.008696" y="41.257347" transform="rotate(-0 309.008696 41.257347)">Baseline</text>
    </g>
    <g id="line2d_63">
     <path d="M 289.408696 48.709065 
L 296.408696 48.709065 
L 303.408696 48.709065 
" style="fill: none; stroke-dasharray: 2.3,2.3; stroke-dashoffset: 0; stroke: #8a7bb8; stroke-width: 1.15"/>
    </g>
    <g id="text_35">
     <text style="font-size: 7px; font-family: 'Arial', 'DejaVu Sans', 'Liberation Sans', sans-serif; text-anchor: start" x="309.008696" y="51.159065" transform="rotate(-0 309.008696 51.159065)">Teacher</text>
    </g>
    <g id="line2d_64">
     <path d="M 289.408696 58.610784 
L 296.408696 58.610784 
L 303.408696 58.610784 
" style="fill: none; stroke: #c95c58; stroke-width: 1.7; stroke-linecap: square"/>
    </g>
    <g id="text_36">
     <text style="font-size: 7px; font-family: 'Arial', 'DejaVu Sans', 'Liberation Sans', sans-serif; text-anchor: start" x="309.008696" y="61.060784" transform="rotate(-0 309.008696 61.060784)">Hybrid</text>
    </g>
   </g>
  </g>
  <g id="axes_3">
   <g id="patch_11">
    <path d="M 34.92 367.881419 
L 222.941739 367.881419 
L 222.941739 232.436713 
L 34.92 232.436713 
z
" style="fill: #ffffff"/>
   </g>
   <g id="patch_12">
    <path d="M 34.92 367.881419 
L 37.248387 367.881419 
L 37.248387 232.436713 
L 34.92 232.436713 
z
" clip-path="url(#p7b87766447)" style="fill: #dde4ee; opacity: 0.3"/>
   </g>
   <g id="patch_13">
    <path d="M 37.248387 367.881419 
L 43.945787 367.881419 
L 43.945787 232.436713 
L 37.248387 232.436713 
z
" clip-path="url(#p7b87766447)" style="fill: #eef2f1; opacity: 0.3"/>
   </g>
   <g id="patch_14">
    <path d="M 43.945787 367.881419 
L 46.274174 367.881419 
L 46.274174 232.436713 
L 43.945787 232.436713 
z
" clip-path="url(#p7b87766447)" style="fill: #dde4ee; opacity: 0.3"/>
   </g>
   <g id="patch_15">
    <path d="M 46.274174 367.881419 
L 52.971574 367.881419 
L 52.971574 232.436713 
L 46.274174 232.436713 
z
" clip-path="url(#p7b87766447)" style="fill: #eef2f1; opacity: 0.3"/>
   </g>
   <g id="patch_16">
    <path d="M 52.971574 367.881419 
L 55.299961 367.881419 
L 55.299961 232.436713 
L 52.971574 232.436713 
z
" clip-path="url(#p7b87766447)" style="fill: #dde4ee; opacity: 0.3"/>
   </g>
   <g id="patch_17">
    <path d="M 55.299961 367.881419 
L 61.997361 367.881419 
L 61.997361 232.436713 
L 55.299961 232.436713 
z
" clip-path="url(#p7b87766447)" style="fill: #eef2f1; opacity: 0.3"/>
   </g>
   <g id="patch_18">
    <path d="M 61.997361 367.881419 
L 64.325748 367.881419 
L 64.325748 232.436713 
L 61.997361 232.436713 
z
" clip-path="url(#p7b87766447)" style="fill: #dde4ee; opacity: 0.3"/>
   </g>
   <g id="patch_19">
    <path d="M 64.325748 367.881419 
L 71.023148 367.881419 
L 71.023148 232.436713 
L 64.325748 232.436713 
z
" clip-path="url(#p7b87766447)" style="fill: #eef2f1; opacity: 0.3"/>
   </g>
   <g id="patch_20">
    <path d="M 71.023148 367.881419 
L 73.351535 367.881419 
L 73.351535 232.436713 
L 71.023148 232.436713 
z
" clip-path="url(#p7b87766447)" style="fill: #dde4ee; opacity: 0.3"/>
   </g>
   <g id="patch_21">
    <path d="M 73.351535 367.881419 
L 80.048935 367.881419 
L 80.048935 232.436713 
L 73.351535 232.436713 
z
" clip-path="url(#p7b87766447)" style="fill: #eef2f1; opacity: 0.3"/>
   </g>
   <g id="patch_22">
    <path d="M 80.048935 367.881419 
L 82.377322 367.881419 
L 82.377322 232.436713 
L 80.048935 232.436713 
z
" clip-path="url(#p7b87766447)" style="fill: #dde4ee; opacity: 0.3"/>
   </g>
   <g id="patch_23">
    <path d="M 82.377322 367.881419 
L 89.074722 367.881419 
L 89.074722 232.436713 
L 82.377322 232.436713 
z
" clip-path="url(#p7b87766447)" style="fill: #eef2f1; opacity: 0.3"/>
   </g>
   <g id="patch_24">
    <path d="M 89.074722 367.881419 
L 91.40311 367.881419 
L 91.40311 232.436713 
L 89.074722 232.436713 
z
" clip-path="url(#p7b87766447)" style="fill: #dde4ee; opacity: 0.3"/>
   </g>
   <g id="patch_25">
    <path d="M 91.40311 367.881419 
L 98.10051 367.881419 
L 98.10051 232.436713 
L 91.40311 232.436713 
z
" clip-path="url(#p7b87766447)" style="fill: #eef2f1; opacity: 0.3"/>
   </g>
   <g id="patch_26">
    <path d="M 98.10051 367.881419 
L 100.428897 367.881419 
L 100.428897 232.436713 
L 98.10051 232.436713 
z
" clip-path="url(#p7b87766447)" style="fill: #dde4ee; opacity: 0.3"/>
   </g>
   <g id="patch_27">
    <path d="M 100.428897 367.881419 
L 107.126297 367.881419 
L 107.126297 232.436713 
L 100.428897 232.436713 
z
" clip-path="url(#p7b87766447)" style="fill: #eef2f1; opacity: 0.3"/>
   </g>
   <g id="patch_28">
    <path d="M 107.126297 367.881419 
L 109.454684 367.881419 
L 109.454684 232.436713 
L 107.126297 232.436713 
z
" clip-path="url(#p7b87766447)" style="fill: #dde4ee; opacity: 0.3"/>
   </g>
   <g id="patch_29">
    <path d="M 109.454684 367.881419 
L 116.152084 367.881419 
L 116.152084 232.436713 
L 109.454684 232.436713 
z
" clip-path="url(#p7b87766447)" style="fill: #eef2f1; opacity: 0.3"/>
   </g>
   <g id="patch_30">
    <path d="M 116.152084 367.881419 
L 141.709655 367.881419 
L 141.709655 232.436713 
L 116.152084 232.436713 
z
" clip-path="url(#p7b87766447)" style="fill: #f3e8d2; opacity: 0.38"/>
   </g>
   <g id="patch_31">
    <path d="M 141.709655 367.881419 
L 144.038042 367.881419 
L 144.038042 232.436713 
L 141.709655 232.436713 
z
" clip-path="url(#p7b87766447)" style="fill: #dde4ee; opacity: 0.3"/>
   </g>
   <g id="patch_32">
    <path d="M 144.038042 367.881419 
L 150.735443 367.881419 
L 150.735443 232.436713 
L 144.038042 232.436713 
z
" clip-path="url(#p7b87766447)" style="fill: #eef2f1; opacity: 0.3"/>
   </g>
   <g id="patch_33">
    <path d="M 150.735443 367.881419 
L 153.06383 367.881419 
L 153.06383 232.436713 
L 150.735443 232.436713 
z
" clip-path="url(#p7b87766447)" style="fill: #dde4ee; opacity: 0.3"/>
   </g>
   <g id="patch_34">
    <path d="M 153.06383 367.881419 
L 159.76123 367.881419 
L 159.76123 232.436713 
L 153.06383 232.436713 
z
" clip-path="url(#p7b87766447)" style="fill: #eef2f1; opacity: 0.3"/>
   </g>
   <g id="patch_35">
    <path d="M 159.76123 367.881419 
L 162.089617 367.881419 
L 162.089617 232.436713 
L 159.76123 232.436713 
z
" clip-path="url(#p7b87766447)" style="fill: #dde4ee; opacity: 0.3"/>
   </g>
   <g id="patch_36">
    <path d="M 162.089617 367.881419 
L 168.787017 367.881419 
L 168.787017 232.436713 
L 162.089617 232.436713 
z
" clip-path="url(#p7b87766447)" style="fill: #eef2f1; opacity: 0.3"/>
   </g>
   <g id="patch_37">
    <path d="M 168.787017 367.881419 
L 171.115404 367.881419 
L 171.115404 232.436713 
L 168.787017 232.436713 
z
" clip-path="url(#p7b87766447)" style="fill: #dde4ee; opacity: 0.3"/>
   </g>
   <g id="patch_38">
    <path d="M 171.115404 367.881419 
L 177.812804 367.881419 
L 177.812804 232.436713 
L 171.115404 232.436713 
z
" clip-path="url(#p7b87766447)" style="fill: #eef2f1; opacity: 0.3"/>
   </g>
   <g id="patch_39">
    <path d="M 177.812804 367.881419 
L 180.141191 367.881419 
L 180.141191 232.436713 
L 177.812804 232.436713 
z
" clip-path="url(#p7b87766447)" style="fill: #dde4ee; opacity: 0.3"/>
   </g>
   <g id="patch_40">
    <path d="M 180.141191 367.881419 
L 186.838591 367.881419 
L 186.838591 232.436713 
L 180.141191 232.436713 
z
" clip-path="url(#p7b87766447)" style="fill: #eef2f1; opacity: 0.3"/>
   </g>
   <g id="patch_41">
    <path d="M 186.838591 367.881419 
L 189.166978 367.881419 
L 189.166978 232.436713 
L 186.838591 232.436713 
z
" clip-path="url(#p7b87766447)" style="fill: #dde4ee; opacity: 0.3"/>
   </g>
   <g id="patch_42">
    <path d="M 189.166978 367.881419 
L 195.864378 367.881419 
L 195.864378 232.436713 
L 189.166978 232.436713 
z
" clip-path="url(#p7b87766447)" style="fill: #eef2f1; opacity: 0.3"/>
   </g>
   <g id="patch_43">
    <path d="M 195.864378 367.881419 
L 198.192765 367.881419 
L 198.192765 232.436713 
L 195.864378 232.436713 
z
" clip-path="url(#p7b87766447)" style="fill: #dde4ee; opacity: 0.3"/>
   </g>
   <g id="patch_44">
    <path d="M 198.192765 367.881419 
L 204.890165 367.881419 
L 204.890165 232.436713 
L 198.192765 232.436713 
z
" clip-path="url(#p7b87766447)" style="fill: #eef2f1; opacity: 0.3"/>
   </g>
   <g id="patch_45">
    <path d="M 204.890165 367.881419 
L 207.218552 367.881419 
L 207.218552 232.436713 
L 204.890165 232.436713 
z
" clip-path="url(#p7b87766447)" style="fill: #dde4ee; opacity: 0.3"/>
   </g>
   <g id="patch_46">
    <path d="M 207.218552 367.881419 
L 213.915952 367.881419 
L 213.915952 232.436713 
L 207.218552 232.436713 
z
" clip-path="url(#p7b87766447)" style="fill: #eef2f1; opacity: 0.3"/>
   </g>
   <g id="patch_47">
    <path d="M 213.915952 367.881419 
L 216.244339 367.881419 
L 216.244339 232.436713 
L 213.915952 232.436713 
z
" clip-path="url(#p7b87766447)" style="fill: #dde4ee; opacity: 0.3"/>
   </g>
   <g id="patch_48">
    <path d="M 216.244339 367.881419 
L 222.941739 367.881419 
L 222.941739 232.436713 
L 216.244339 232.436713 
z
" clip-path="url(#p7b87766447)" style="fill: #eef2f1; opacity: 0.3"/>
   </g>
   <g id="matplotlib.axis_5">
    <g id="xtick_13">
     <g id="line2d_65">
      <g>
       <use xlink:href="#m09db8213d4" x="34.92" y="367.881419" style="stroke: #000000; stroke-width: 0.8"/>
      </g>
     </g>
     <g id="text_37">
      <text style="font-size: 8px; font-family: 'Arial', 'DejaVu Sans', 'Liberation Sans', sans-serif; text-anchor: middle" x="34.92" y="380.607669" transform="rotate(-0 34.92 380.607669)">0</text>
     </g>
    </g>
    <g id="xtick_14">
     <g id="line2d_66">
      <g>
       <use xlink:href="#m09db8213d4" x="73.031375" y="367.881419" style="stroke: #000000; stroke-width: 0.8"/>
      </g>
     </g>
     <g id="text_38">
      <text style="font-size: 8px; font-family: 'Arial', 'DejaVu Sans', 'Liberation Sans', sans-serif; text-anchor: middle" x="73.031375" y="380.607669" transform="rotate(-0 73.031375 380.607669)">5</text>
     </g>
    </g>
    <g id="xtick_15">
     <g id="line2d_67">
      <g>
       <use xlink:href="#m09db8213d4" x="111.14275" y="367.881419" style="stroke: #000000; stroke-width: 0.8"/>
      </g>
     </g>
     <g id="text_39">
      <text style="font-size: 8px; font-family: 'Arial', 'DejaVu Sans', 'Liberation Sans', sans-serif; text-anchor: middle" x="111.14275" y="380.607669" transform="rotate(-0 111.14275 380.607669)">10</text>
     </g>
    </g>
    <g id="xtick_16">
     <g id="line2d_68">
      <g>
       <use xlink:href="#m09db8213d4" x="149.254125" y="367.881419" style="stroke: #000000; stroke-width: 0.8"/>
      </g>
     </g>
     <g id="text_40">
      <text style="font-size: 8px; font-family: 'Arial', 'DejaVu Sans', 'Liberation Sans', sans-serif; text-anchor: middle" x="149.254125" y="380.607669" transform="rotate(-0 149.254125 380.607669)">15</text>
     </g>
    </g>
    <g id="xtick_17">
     <g id="line2d_69">
      <g>
       <use xlink:href="#m09db8213d4" x="187.3655" y="367.881419" style="stroke: #000000; stroke-width: 0.8"/>
      </g>
     </g>
     <g id="text_41">
      <text style="font-size: 8px; font-family: 'Arial', 'DejaVu Sans', 'Liberation Sans', sans-serif; text-anchor: middle" x="187.3655" y="380.607669" transform="rotate(-0 187.3655 380.607669)">20</text>
     </g>
    </g>
    <g id="text_42">
     <text style="font-size: 8px; font-family: 'Arial', 'DejaVu Sans', 'Liberation Sans', sans-serif; text-anchor: middle" x="128.93087" y="392.021419" transform="rotate(-0 128.93087 392.021419)">Depth through multilayer (um)</text>
    </g>
   </g>
   <g id="matplotlib.axis_6">
    <g id="ytick_9">
     <g id="line2d_70">
      <path d="M 34.92 367.881419 
L 222.941739 367.881419 
" clip-path="url(#p7b87766447)" style="fill: none; stroke: #e7e7e7; stroke-width: 0.7; stroke-linecap: square"/>
     </g>
     <g id="line2d_71">
      <g>
       <use xlink:href="#m48c30b2fb4" x="34.92" y="367.881419" style="stroke: #000000; stroke-width: 0.8"/>
      </g>
     </g>
     <g id="text_43">
      <text style="font-size: 8px; font-family: 'Arial', 'DejaVu Sans', 'Liberation Sans', sans-serif; text-anchor: end" x="27.92" y="370.744544" transform="rotate(-0 27.92 370.744544)">0.0</text>
     </g>
    </g>
    <g id="ytick_10">
     <g id="line2d_72">
      <path d="M 34.92 339.666874 
L 222.941739 339.666874 
" clip-path="url(#p7b87766447)" style="fill: none; stroke: #e7e7e7; stroke-width: 0.7; stroke-linecap: square"/>
     </g>
     <g id="line2d_73">
      <g>
       <use xlink:href="#m48c30b2fb4" x="34.92" y="339.666874" style="stroke: #000000; stroke-width: 0.8"/>
      </g>
     </g>
     <g id="text_44">
      <text style="font-size: 8px; font-family: 'Arial', 'DejaVu Sans', 'Liberation Sans', sans-serif; text-anchor: end" x="27.92" y="342.529999" transform="rotate(-0 27.92 342.529999)">0.5</text>
     </g>
    </g>
    <g id="ytick_11">
     <g id="line2d_74">
      <path d="M 34.92 311.452328 
L 222.941739 311.452328 
" clip-path="url(#p7b87766447)" style="fill: none; stroke: #e7e7e7; stroke-width: 0.7; stroke-linecap: square"/>
     </g>
     <g id="line2d_75">
      <g>
       <use xlink:href="#m48c30b2fb4" x="34.92" y="311.452328" style="stroke: #000000; stroke-width: 0.8"/>
      </g>
     </g>
     <g id="text_45">
      <text style="font-size: 8px; font-family: 'Arial', 'DejaVu Sans', 'Liberation Sans', sans-serif; text-anchor: end" x="27.92" y="314.315453" transform="rotate(-0 27.92 314.315453)">1.0</text>
     </g>
    </g>
    <g id="ytick_12">
     <g id="line2d_76">
      <path d="M 34.92 283.237783 
L 222.941739 283.237783 
" clip-path="url(#p7b87766447)" style="fill: none; stroke: #e7e7e7; stroke-width: 0.7; stroke-linecap: square"/>
     </g>
     <g id="line2d_77">
      <g>
       <use xlink:href="#m48c30b2fb4" x="34.92" y="283.237783" style="stroke: #000000; stroke-width: 0.8"/>
      </g>
     </g>
     <g id="text_46">
      <text style="font-size: 8px; font-family: 'Arial', 'DejaVu Sans', 'Liberation Sans', sans-serif; text-anchor: end" x="27.92" y="286.100908" transform="rotate(-0 27.92 286.100908)">1.5</text>
     </g>
    </g>
    <g id="ytick_13">
     <g id="line2d_78">
      <path d="M 34.92 255.023237 
L 222.941739 255.023237 
" clip-path="url(#p7b87766447)" style="fill: none; stroke: #e7e7e7; stroke-width: 0.7; stroke-linecap: square"/>
     </g>
     <g id="line2d_79">
      <g>
       <use xlink:href="#m48c30b2fb4" x="34.92" y="255.023237" style="stroke: #000000; stroke-width: 0.8"/>
      </g>
     </g>
     <g id="text_47">
      <text style="font-size: 8px; font-family: 'Arial', 'DejaVu Sans', 'Liberation Sans', sans-serif; text-anchor: end" x="27.92" y="257.886362" transform="rotate(-0 27.92 257.886362)">2.0</text>
     </g>
    </g>
    <g id="text_48">
     <!-- 1D TMM $|E|^2$ -->
     <g transform="translate(10.88 323.759066) rotate(-90)">
      <text>
       <tspan x="0" y="-0.78125" style="font-size: 8px; font-family: 'Arial'">1</tspan>
       <tspan x="4.449219" y="-0.78125" style="font-size: 8px; font-family: 'Arial'">D</tspan>
       <tspan x="10.226562" y="-0.78125" style="font-size: 8px; font-family: 'Arial'"> </tspan>
       <tspan x="12.449219" y="-0.78125" style="font-size: 8px; font-family: 'Arial'">T</tspan>
       <tspan x="17.335938" y="-0.78125" style="font-size: 8px; font-family: 'Arial'">M</tspan>
       <tspan x="24" y="-0.78125" style="font-size: 8px; font-family: 'Arial'">M</tspan>
       <tspan x="30.664062" y="-0.78125" style="font-size: 8px; font-family: 'Arial'"> </tspan>
       <tspan x="32.886719" y="-0.78125" style="font-size: 8px; font-family: 'DejaVu Sans'">|</tspan>
       <tspan x="40.636719" y="-0.78125" style="font-size: 8px; font-family: 'DejaVu Sans'">|</tspan>
       <tspan x="35.582031" y="-0.78125" style="font-style: oblique; font-size: 8px; font-family: 'DejaVu Sans'">E</tspan>
       <tspan x="43.408594" y="-3.84375" style="font-size: 5.6px; font-family: 'DejaVu Sans'">2</tspan>
      </text>
     </g>
    </g>
   </g>
   <g id="line2d_80">
    <path d="M 34.92 340.901977 
L 35.457014 354.130823 
L 35.859774 362.372821 
L 36.128281 363.952824 
L 36.262534 363.302538 
L 36.531041 359.35394 
L 38.037434 327.456797 
L 39.088743 309.765111 
L 39.439179 305.748279 
L 39.789615 303.162516 
L 40.140051 302.175453 
L 40.490487 302.852454 
L 40.840924 305.152436 
L 41.19136 308.930494 
L 41.892232 319.883778 
L 43.293977 344.916992 
L 44.718441 362.387758 
L 44.852694 362.454178 
L 44.986947 361.964505 
L 45.255454 359.496814 
L 48.514028 316.837925 
L 48.864464 313.95727 
L 49.214901 312.249943 
L 49.565337 311.827309 
L 49.915773 312.718553 
L 50.266209 314.868811 
L 50.967082 322.332891 
L 52.50308 344.537228 
L 53.577107 363.95344 
L 53.711361 363.910952 
L 53.845614 363.022167 
L 54.114121 359.020422 
L 56.537569 308.619945 
L 57.238441 299.09335 
L 57.588878 296.839227 
L 57.939314 296.490424 
L 58.28975 298.071332 
L 58.640186 301.482901 
L 59.341059 312.830118 
L 61.630253 358.235482 
L 62.033013 363.230752 
L 62.167267 363.695737 
L 62.30152 363.465445 
L 62.570027 361.035138 
L 63.107041 351.512127 
L 63.509801 345.630844 
L 64.56111 334.49194 
L 65.261982 327.259239 
L 65.962854 322.349457 
L 66.313291 321.189818 
L 66.663727 321.014637 
L 67.014163 321.83713 
L 67.364599 323.606692 
L 68.065472 329.488795 
L 70.220413 353.123757 
L 70.89168 362.572961 
L 71.160187 363.466234 
L 71.29444 363.019096 
L 71.562947 360.497183 
L 72.58465 344.912453 
L 74.687268 307.631241 
L 75.037704 304.248046 
L 75.38814 302.499715 
L 75.738576 302.500031 
L 76.089013 304.250915 
L 76.439449 307.64231 
L 77.140321 318.395437 
L 79.616093 364.461535 
L 79.750347 364.564678 
L 79.8846 363.838695 
L 80.153107 360.16643 
L 81.309064 338.862339 
L 82.360372 324.237571 
L 83.061245 317.491945 
L 83.411681 315.745755 
L 83.762117 315.259874 
L 84.112553 316.067262 
L 84.462989 318.11815 
L 85.163862 325.361889 
L 87.266479 352.690322 
L 87.803493 358.584284 
L 88.206253 362.330656 
L 88.47476 363.096575 
L 88.609013 362.83499 
L 88.87752 361.116303 
L 90.383913 345.375411 
L 92.136094 323.101706 
L 92.48653 320.184943 
L 92.836966 318.327444 
L 93.187403 317.649849 
L 93.537839 318.197319 
L 93.888275 319.936647 
L 94.238711 322.758387 
L 94.939584 330.876533 
L 96.259399 349.649652 
L 96.930666 362.742633 
L 97.199173 364.796239 
L 97.333426 364.672139 
L 97.601933 362.166546 
L 98.138947 351.552857 
L 98.75789 340.58893 
L 100.159635 316.107562 
L 100.860507 308.694312 
L 101.210943 307.206 
L 101.56138 307.35877 
L 101.911816 309.144605 
L 102.262252 312.451021 
L 102.963124 322.702737 
L 104.715306 352.64934 
L 105.655079 363.850105 
L 105.789333 364.119861 
L 105.923586 363.855475 
L 106.192093 361.838407 
L 107.482303 347.642336 
L 109.234484 333.465815 
L 109.58492 331.553806 
L 109.935357 330.304448 
L 110.285793 329.799359 
L 110.636229 330.072545 
L 110.986665 331.108229 
L 111.337101 332.841855 
L 112.037974 337.928454 
L 113.439719 349.719569 
L 114.833034 354.424881 
L 116.22635 347.820138 
L 117.619665 336.166567 
L 119.012981 330.43733 
L 120.406296 336.075469 
L 121.799612 347.913519 
L 123.192927 354.996679 
L 124.586243 350.807742 
L 125.979559 339.350082 
L 127.372874 331.411011 
L 128.76619 334.493195 
L 130.159505 345.811861 
L 131.552821 354.894033 
L 132.946136 353.353736 
L 134.339452 342.719242 
L 135.732767 333.006623 
L 137.126083 333.371019 
L 138.653652 345.12494 
L 139.056412 353.087345 
L 139.593426 363.796972 
L 139.861933 365.71474 
L 139.996186 365.441441 
L 140.264693 362.528226 
L 140.801706 351.093516 
L 141.987268 323.831213 
L 142.688141 308.061781 
L 143.389013 297.401201 
L 143.73945 294.901099 
L 144.089886 294.545282 
L 144.440322 296.357991 
L 144.790758 300.224752 
L 145.491631 313.021281 
L 147.512318 357.827873 
L 147.915079 363.956936 
L 148.183585 365.525721 
L 148.317839 365.322567 
L 148.586346 363.013832 
L 149.123359 353.857476 
L 149.52612 348.156277 
L 149.660373 347.284048 
L 150.711682 343.472627 
L 151.062118 342.644482 
L 151.412554 342.141867 
L 151.76299 341.998366 
L 152.113427 342.224586 
L 152.463863 342.807485 
L 153.164735 344.879353 
L 155.267352 352.796039 
L 155.617789 353.474644 
L 156.102478 354.0554 
L 156.370985 355.629305 
L 157.445012 364.530755 
L 157.579266 364.524805 
L 157.713519 364.131721 
L 157.982026 362.324287 
L 158.384786 358.174564 
L 159.085659 347.903615 
L 161.188276 309.264688 
L 161.538712 306.115969 
L 161.889148 304.72141 
L 162.239585 305.171589 
L 162.590021 307.439081 
L 162.940457 311.38021 
L 163.641329 323.189411 
L 165.095398 354.39989 
L 165.632412 365.264298 
L 165.766665 366.217113 
L 165.900919 366.238642 
L 166.035172 365.327329 
L 166.303679 361.033581 
L 167.109199 342.545684 
L 168.160508 328.498057 
L 168.86138 322.63923 
L 169.211817 321.408871 
L 169.562253 321.44317 
L 169.912689 322.741252 
L 170.263125 325.221398 
L 170.963998 333.032993 
L 172.716179 356.235161 
L 173.066615 359.112846 
L 173.685558 361.763548 
L 174.088318 362.855027 
L 174.356825 363.102589 
L 174.625332 362.865948 
L 175.028092 361.784478 
L 175.699359 359.871179 
L 175.833613 359.731345 
L 176.184049 359.06086 
L 176.534485 357.506889 
L 177.235357 352.201324 
L 178.987538 335.255197 
L 179.337975 332.992539 
L 179.688411 331.525414 
L 180.038847 330.948942 
L 180.389283 331.301263 
L 180.73972 332.561105 
L 181.090156 334.649144 
L 181.791028 340.736078 
L 182.275718 346.122483 
L 182.812731 357.591747 
L 183.215492 364.895859 
L 183.483999 366.397716 
L 183.618252 365.893795 
L 183.886759 362.556447 
L 184.908462 340.916253 
L 186.310207 312.458297 
L 186.660643 307.626383 
L 187.011079 304.440727 
L 187.361515 303.106328 
L 187.711952 303.70976 
L 188.062388 306.213638 
L 188.412824 310.459009 
L 189.113697 322.998704 
L 190.515441 352.193144 
L 191.402891 364.236955 
L 191.671398 365.722469 
L 191.805651 365.750378 
L 191.939905 365.2872 
L 192.208412 363.055231 
L 193.148186 352.511409 
L 193.282439 352.174257 
L 194.684184 351.281628 
L 195.385056 351.058308 
L 196.085929 351.086557 
L 196.786801 351.368473 
L 197.83811 352.117889 
L 199.239855 353.100959 
L 199.590291 353.243582 
L 199.724544 353.512879 
L 199.993051 355.301773 
L 201.067078 365.676747 
L 201.201332 365.691852 
L 201.335585 365.257111 
L 201.604092 363.194637 
L 202.006852 358.395225 
L 202.707725 347.133735 
L 204.459906 313.483688 
L 204.810342 309.304663 
L 205.160778 306.774613 
L 205.511214 306.056504 
L 205.86165 307.197392 
L 206.212087 310.125417 
L 206.912959 320.495747 
L 208.717464 357.559833 
L 209.120224 364.94929 
L 209.388731 366.711108 
L 209.522985 366.373904 
L 209.791491 363.383853 
L 211.081702 341.723539 
L 211.782574 336.055172 
L 212.13301 334.230447 
L 212.483446 333.251278 
L 212.833883 333.181376 
L 213.184319 334.026287 
L 213.534755 335.733038 
L 214.235627 341.251422 
L 215.987809 358.091508 
L 216.338245 360.248868 
L 216.688681 361.600262 
L 217.039117 361.600262 
L 217.039117 361.600262 
" clip-path="url(#p7b87766447)" style="fill: none; stroke-dasharray: 5.6,2.8; stroke-dashoffset: 0; stroke: #596da8; stroke-width: 1.4"/>
   </g>
   <g id="line2d_81">
    <path d="M 34.92 336.099983 
L 35.17871 340.120418 
L 36.213548 362.345458 
L 36.342903 362.557017 
L 36.472258 361.850675 
L 36.730968 357.933385 
L 37.248387 344.616078 
L 37.992543 319.78986 
L 39.480854 261.809263 
L 39.852932 251.723177 
L 40.225009 245.116895 
L 40.597087 242.469654 
L 40.969165 243.975383 
L 41.341243 249.528731 
L 41.71332 258.732658 
L 42.457476 285.236279 
L 43.945787 342.364349 
L 44.721916 362.329131 
L 44.851271 363.3468 
L 44.980626 363.334325 
L 45.109981 362.29256 
L 45.36869 357.466647 
L 46.274174 333.898056 
L 47.762485 316.49558 
L 48.134563 313.704278 
L 48.506641 312.031973 
L 48.878719 311.602223 
L 49.250796 312.449038 
L 49.622874 314.51443 
L 50.36703 321.640422 
L 52.227419 343.445217 
L 52.599496 345.967459 
L 53.100929 347.795696 
L 53.359639 349.94183 
L 54.265123 360.241593 
L 54.394477 360.698635 
L 54.523832 360.704605 
L 54.653187 360.259113 
L 54.911897 358.162268 
L 55.299961 353.210973 
L 55.672039 346.69219 
L 56.416195 326.386899 
L 57.904506 279.013213 
L 58.276583 270.783321 
L 58.648661 265.400637 
L 59.020739 263.255979 
L 59.392817 264.506821 
L 59.764895 269.065941 
L 60.136972 276.607709 
L 60.881128 298.300913 
L 62.902845 363.08898 
L 63.0322 364.356967 
L 63.161555 364.403119 
L 63.29091 363.224337 
L 63.549619 357.586949 
L 64.697826 323.088496 
L 65.814059 298.271045 
L 66.186137 292.607964 
L 66.558215 289.028509 
L 66.930293 287.793438 
L 67.302371 288.994559 
L 67.674448 292.548119 
L 68.046526 298.200837 
L 68.790682 314.0634 
L 69.906915 340.354368 
L 70.651071 352.352005 
L 71.281858 356.553309 
L 71.799277 358.741718 
L 72.057987 359.047354 
L 72.187342 358.94035 
L 72.446052 358.242316 
L 73.351535 354.190345 
L 73.723613 352.226987 
L 74.095691 348.348588 
L 74.839846 336.093225 
L 76.328158 307.130693 
L 76.700235 302.035651 
L 77.072313 298.664249 
L 77.444391 297.26214 
L 77.816469 297.933058 
L 78.188546 300.631349 
L 78.560624 305.165253 
L 79.30478 318.334806 
L 80.307645 340.579712 
L 81.083774 363.215526 
L 81.342484 364.731695 
L 81.471839 363.768392 
L 81.730548 358.719264 
L 82.7494 326.546981 
L 84.237711 279.501369 
L 84.609789 271.670949 
L 84.981867 266.769279 
L 85.353945 265.15218 
L 85.726022 266.938772 
L 86.0981 272.002891 
L 86.842256 290.304207 
L 88.702645 348.390406 
L 89.333432 359.024171 
L 89.721497 362.41828 
L 89.850851 362.666095 
L 89.980206 362.417951 
L 90.238916 360.533007 
L 90.88569 351.701959 
L 91.273755 348.230508 
L 91.40311 347.949565 
L 91.775187 347.487606 
L 92.147265 346.326405 
L 92.891421 342.295209 
L 94.75181 330.062816 
L 95.123887 328.697373 
L 95.495965 328.009236 
L 95.868043 328.050475 
L 96.240121 328.820598 
L 96.612198 330.26658 
L 97.356354 334.737834 
L 98.229864 341.556963 
L 98.617929 349.216218 
L 99.264703 362.878735 
L 99.523413 364.378559 
L 99.652768 363.891255 
L 99.911477 360.604243 
L 100.428897 348.682606 
L 101.173052 326.227473 
L 102.661363 275.178801 
L 103.033441 266.556041 
L 103.405519 261.072845 
L 103.777597 259.126738 
L 104.149674 260.860345 
L 104.521752 266.151116 
L 104.89383 274.62016 
L 105.637985 298.476098 
L 106.754219 338.138824 
L 107.643716 360.895484 
L 107.902426 364.298381 
L 108.03178 364.807837 
L 108.161135 364.458344 
L 108.419845 361.333046 
L 108.937264 349.191059 
L 109.325329 341.278452 
L 109.826761 337.079919 
L 110.570917 332.239322 
L 110.942995 330.563586 
L 111.315073 329.561525 
L 111.68715 329.307641 
L 112.059228 329.82252 
L 112.431306 331.071344 
L 113.175461 335.373419 
L 115.03585 348.537382 
L 115.407928 350.063815 
L 115.780006 350.885999 
L 116.152084 350.946943 
L 117.571949 344.816526 
L 118.991814 334.489478 
L 120.411679 330.056798 
L 121.831544 335.914513 
L 123.251409 346.516794 
L 124.671274 351.733636 
L 126.091139 346.637188 
L 127.511004 336.262422 
L 128.93087 330.74298 
L 130.350735 335.52134 
L 131.7706 346.090982 
L 133.190465 352.350022 
L 134.61033 348.360373 
L 136.030195 338.084374 
L 137.45006 331.556885 
L 138.869925 335.190877 
L 140.28979 345.582035 
L 142.09772 354.954842 
L 143.003204 362.974493 
L 143.132559 363.294973 
L 143.261913 363.260097 
L 143.520623 362.157493 
L 143.908688 358.623302 
L 144.41012 352.293316 
L 145.154276 337.506244 
L 146.642587 304.455703 
L 147.014665 298.98412 
L 147.386743 295.579196 
L 147.75882 294.488305 
L 148.130898 295.792064 
L 148.502976 299.398518 
L 149.247131 312.340578 
L 151.640926 364.763167 
L 151.770281 365.467057 
L 151.899636 365.358053 
L 152.158346 362.785061 
L 152.54641 354.666572 
L 153.06383 343.640876 
L 154.552141 322.879524 
L 154.924218 319.481252 
L 155.296296 317.394123 
L 155.668374 316.770469 
L 156.040452 317.657157 
L 156.41253 319.992212 
L 157.156685 328.249627 
L 159.017074 354.008774 
L 159.389152 357.047342 
L 160.149294 359.969366 
L 160.666713 361.560723 
L 160.925423 361.838276 
L 161.054778 361.79696 
L 161.313488 361.367911 
L 161.830907 359.653949 
L 162.089617 358.823371 
L 162.461694 357.063936 
L 162.833772 353.90827 
L 163.577928 344.409471 
L 165.066239 323.006626 
L 165.438317 319.433118 
L 165.810394 317.190085 
L 166.182472 316.441017 
L 166.55455 317.241744 
L 166.926628 319.536408 
L 167.670783 327.857611 
L 168.916372 346.981786 
L 169.821855 364.922246 
L 169.95121 365.687149 
L 170.080565 365.662672 
L 170.20992 364.850471 
L 170.46863 361.131249 
L 172.975793 309.240757 
L 173.34787 304.453662 
L 173.719948 301.604485 
L 174.092026 300.900325 
L 174.464104 302.3937 
L 174.836182 305.978765 
L 175.580337 318.265395 
L 177.440726 355.491927 
L 178.071513 361.865483 
L 178.459578 363.845804 
L 178.588933 363.982657 
L 178.718288 363.826927 
L 178.976997 362.698733 
L 180.141191 355.300421 
L 180.513269 354.955246 
L 180.885346 354.003819 
L 181.629502 350.601975 
L 183.489891 339.990931 
L 183.861969 338.759925 
L 184.234046 338.105177 
L 184.606124 338.075576 
L 184.978202 338.674955 
L 185.35028 339.86182 
L 186.094435 343.626388 
L 186.967946 349.409065 
L 187.35601 355.164141 
L 187.87343 363.489324 
L 188.132139 365.433743 
L 188.261494 365.542451 
L 188.390849 365.052448 
L 188.649559 362.446536 
L 189.166978 353.729997 
L 189.911133 338.184782 
L 191.399445 304.273491 
L 191.771522 298.819276 
L 192.1436 295.532246 
L 192.515678 294.650914 
L 192.887756 296.240427 
L 193.259833 300.187873 
L 194.003989 313.875688 
L 195.864378 355.778006 
L 196.511152 364.642954 
L 196.769862 365.618097 
L 196.899217 365.303127 
L 197.157926 363.17283 
L 198.192765 349.849898 
L 199.308998 345.547271 
L 199.681076 344.505027 
L 200.053154 343.80114 
L 200.425232 343.48791 
L 200.797309 343.589483 
L 201.169387 344.10011 
L 201.541465 344.984564 
L 202.285621 347.603816 
L 203.773932 353.458245 
L 204.146009 354.43887 
L 204.518087 355.060769 
L 205.01952 355.444353 
L 205.278229 356.664867 
L 206.442423 364.758919 
L 206.571778 364.616964 
L 206.830488 363.434274 
L 207.218552 360.131323 
L 207.59063 355.656015 
L 208.334785 342.292364 
L 209.823096 312.403716 
L 210.195174 307.449957 
L 210.567252 304.362833 
L 210.93933 303.36632 
L 211.311408 304.533735 
L 211.683485 307.782455 
L 212.427641 319.460135 
L 214.692081 364.733957 
L 214.950791 366.318768 
L 215.080146 366.062278 
L 215.338855 363.536794 
L 215.856275 353.541298 
L 216.244339 346.948913 
L 217.360572 334.804691 
L 217.73265 331.847602 
L 218.104728 329.834156 
L 218.476806 328.910893 
L 218.848884 329.145789 
L 219.220961 330.523358 
L 219.593039 332.945767 
L 220.337195 340.169774 
L 221.825506 356.362046 
L 222.197584 359.066004 
L 222.569661 360.76937 
L 222.941739 360.76937 
L 222.941739 360.76937 
" clip-path="url(#p7b87766447)" style="fill: none; stroke: #c95c58; stroke-width: 1.8; stroke-linecap: square"/>
   </g>
   <g id="patch_49">
    <path d="M 34.92 367.881419 
L 34.92 232.436713 
" style="fill: none; stroke: #000000; stroke-width: 0.8; stroke-linejoin: miter; stroke-linecap: square"/>
   </g>
   <g id="patch_50">
    <path d="M 34.92 367.881419 
L 222.941739 367.881419 
" style="fill: none; stroke: #000000; stroke-width: 0.8; stroke-linejoin: miter; stroke-linecap: square"/>
   </g>
   <g id="text_49">
    <text style="font-weight: 700; font-size: 9px; font-family: 'Arial', 'DejaVu Sans', 'Liberation Sans', sans-serif; text-anchor: start; fill: #2a2a2a" x="19.878261" y="219.825043" transform="rotate(-0 19.878261 219.825043)">c</text>
   </g>
   <g id="text_50">
    <text style="font-size: 7px; font-family: 'Arial', 'DejaVu Sans', 'Liberation Sans', sans-serif; text-anchor: middle; fill: #6e6e6e" x="128.93087" y="245.663552" transform="rotate(-0 128.93087 245.663552)">SiO2 cavity</text>
   </g>
   <g id="text_51">
    <text style="font-weight: 700; font-size: 9px; font-family: 'Arial', 'DejaVu Sans', 'Liberation Sans', sans-serif; text-anchor: middle" x="128.93087" y="226.436713" transform="rotate(-0 128.93087 226.436713)">Field profile at target peak 3178 nm</text>
   </g>
   <g id="legend_3">
    <g id="line2d_82">
     <path d="M 170.19127 241.297182 
L 177.19127 241.297182 
L 184.19127 241.297182 
" style="fill: none; stroke-dasharray: 5.6,2.8; stroke-dashoffset: 0; stroke: #596da8; stroke-width: 1.4"/>
    </g>
    <g id="text_52">
     <text style="font-size: 7px; font-family: 'Arial', 'DejaVu Sans', 'Liberation Sans', sans-serif; text-anchor: start" x="189.79127" y="243.747182" transform="rotate(-0 189.79127 243.747182)">Baseline</text>
    </g>
    <g id="line2d_83">
     <path d="M 170.19127 251.198901 
L 177.19127 251.198901 
L 184.19127 251.198901 
" style="fill: none; stroke: #c95c58; stroke-width: 1.8; stroke-linecap: square"/>
    </g>
    <g id="text_53">
     <text style="font-size: 7px; font-family: 'Arial', 'DejaVu Sans', 'Liberation Sans', sans-serif; text-anchor: start" x="189.79127" y="253.648901" transform="rotate(-0 189.79127 253.648901)">Hybrid</text>
    </g>
   </g>
  </g>
  <g id="axes_4">
   <g id="line2d_84">
    <path d="M 283.108696 274.424572 
L 294.39 274.424572 
" clip-path="url(#p9225b139df)" style="fill: none; stroke-dasharray: 7.2,3.6; stroke-dashoffset: 0; stroke: #596da8; stroke-width: 1.8"/>
   </g>
   <g id="line2d_85">
    <path d="M 283.108696 298.804619 
L 294.39 298.804619 
" clip-path="url(#p9225b139df)" style="fill: none; stroke-dasharray: 3.6,3.6; stroke-dashoffset: 0; stroke: #8a7bb8; stroke-width: 1.8"/>
   </g>
   <g id="line2d_86">
    <path d="M 283.108696 323.184666 
L 294.39 323.184666 
" clip-path="url(#p9225b139df)" style="fill: none; stroke: #c95c58; stroke-width: 1.8; stroke-linecap: square"/>
   </g>
   <g id="text_54">
    <text style="font-weight: 700; font-size: 9px; font-family: 'Arial', 'DejaVu Sans', 'Liberation Sans', sans-serif; text-anchor: start; fill: #2a2a2a" x="260.546087" y="219.825043" transform="rotate(-0 260.546087 219.825043)">d</text>
   </g>
   <g id="text_55">
    <text style="font-weight: 700; font-size: 9px; font-family: 'Arial', 'DejaVu Sans', 'Liberation Sans', sans-serif; text-anchor: start" x="283.108696" y="239.208949" transform="rotate(-0 283.108696 239.208949)">Mechanism summary</text>
   </g>
   <g id="text_56">
    <text style="font-size: 7px; font-family: 'Arial', 'DejaVu Sans', 'Liberation Sans', sans-serif; text-anchor: start; fill: #6e6e6e" x="283.108696" y="256.81676" transform="rotate(-0 283.108696 256.81676)">method</text>
   </g>
   <g id="text_57">
    <text style="font-size: 7px; font-family: 'Arial', 'DejaVu Sans', 'Liberation Sans', sans-serif; text-anchor: end; fill: #6e6e6e" x="403.442609" y="256.81676" transform="rotate(-0 403.442609 256.81676)">shift</text>
   </g>
   <g id="text_58">
    <text style="font-size: 7px; font-family: 'Arial', 'DejaVu Sans', 'Liberation Sans', sans-serif; text-anchor: end; fill: #6e6e6e" x="463.609565" y="256.81676" transform="rotate(-0 463.609565 256.81676)">valid / yield</text>
   </g>
   <g id="text_59">
    <text style="font-size: 7.3px; font-family: 'Arial', 'DejaVu Sans', 'Liberation Sans', sans-serif; text-anchor: start" x="299.090543" y="275.779019" transform="rotate(-0 299.090543 275.779019)">Baseline</text>
   </g>
   <g id="text_60">
    <text style="font-size: 7.3px; font-family: 'Arial', 'DejaVu Sans', 'Liberation Sans', sans-serif; text-anchor: end" x="403.442609" y="275.779019" transform="rotate(-0 403.442609 275.779019)">33.6 nm</text>
   </g>
   <g id="text_61">
    <text style="font-size: 7.3px; font-family: 'Arial', 'DejaVu Sans', 'Liberation Sans', sans-serif; text-anchor: end" x="463.609565" y="275.779019" transform="rotate(-0 463.609565 275.779019)">no / 0.05</text>
   </g>
   <g id="text_62">
    <text style="font-size: 7.3px; font-family: 'Arial', 'DejaVu Sans', 'Liberation Sans', sans-serif; text-anchor: start" x="299.090543" y="300.159066" transform="rotate(-0 299.090543 300.159066)">Teacher</text>
   </g>
   <g id="text_63">
    <text style="font-size: 7.3px; font-family: 'Arial', 'DejaVu Sans', 'Liberation Sans', sans-serif; text-anchor: end" x="403.442609" y="300.159066" transform="rotate(-0 403.442609 300.159066)">34.0 nm</text>
   </g>
   <g id="text_64">
    <text style="font-size: 7.3px; font-family: 'Arial', 'DejaVu Sans', 'Liberation Sans', sans-serif; text-anchor: end" x="463.609565" y="300.159066" transform="rotate(-0 463.609565 300.159066)">no / 0.00</text>
   </g>
   <g id="text_65">
    <text style="font-size: 7.3px; font-family: 'Arial', 'DejaVu Sans', 'Liberation Sans', sans-serif; text-anchor: start" x="299.090543" y="324.539113" transform="rotate(-0 299.090543 324.539113)">Hybrid</text>
   </g>
   <g id="text_66">
    <text style="font-size: 7.3px; font-family: 'Arial', 'DejaVu Sans', 'Liberation Sans', sans-serif; text-anchor: end" x="403.442609" y="324.539113" transform="rotate(-0 403.442609 324.539113)">3.2 nm</text>
   </g>
   <g id="text_67">
    <text style="font-size: 7.3px; font-family: 'Arial', 'DejaVu Sans', 'Liberation Sans', sans-serif; text-anchor: end" x="463.609565" y="324.539113" transform="rotate(-0 463.609565 324.539113)">yes / 0.65</text>
   </g>
   <g id="text_68">
    <text style="font-size: 7px; font-family: 'Arial', 'DejaVu Sans', 'Liberation Sans', sans-serif; fill: #6e6e6e" transform="translate(283.108696 342.238218)">Phase residuals use the complex DBR</text>
    <text style="font-size: 7px; font-family: 'Arial', 'DejaVu Sans', 'Liberation Sans', sans-serif; fill: #6e6e6e" transform="translate(283.108696 349.64203)">reflection coefficients from the same</text>
    <text style="font-size: 7px; font-family: 'Arial', 'DejaVu Sans', 'Liberation Sans', sans-serif; fill: #6e6e6e" transform="translate(283.108696 357.045843)">normal-incidence coherent TMM model.</text>
   </g>
  </g>
 </g>
 <defs>
  <clipPath id="pd82a498367">
   <rect x="34.92" y="26.925419" width="188.021739" height="151.072941"/>
  </clipPath>
  <clipPath id="pa48b649060">
   <rect x="279.348261" y="26.925419" width="188.021739" height="151.072941"/>
  </clipPath>
  <clipPath id="p7b87766447">
   <rect x="34.92" y="232.436713" width="188.021739" height="135.444706"/>
  </clipPath>
  <clipPath id="p9225b139df">
   <rect x="279.348261" y="232.436713" width="188.021739" height="135.444706"/>
  </clipPath>
 </defs>
</svg>
